<svg version="1.1" viewBox="0.0 0.0 600.0 371.0" fill="none" stroke="none" stroke-linecap="square" stroke-miterlimit="10" width="600" height="371" xmlns:xlink="http://www.w3.org/1999/xlink" xmlns="http://www.w3.org/2000/svg"><path fill="#ffffff" d="M0 0L600.0 0L600.0 371.0L0 371.0L0 0Z" fill-rule="nonzero"/><path stroke="#cccccc" stroke-width="1.0" stroke-linecap="butt" d="M194.5 25.5L194.5 300.5" fill-rule="nonzero"/><path stroke="#cccccc" stroke-width="1.0" stroke-linecap="butt" d="M270.5 25.5L270.5 300.5" fill-rule="nonzero"/><path stroke="#cccccc" stroke-width="1.0" stroke-linecap="butt" d="M346.5 25.5L346.5 300.5" fill-rule="nonzero"/><path stroke="#cccccc" stroke-width="1.0" stroke-linecap="butt" d="M422.5 25.5L422.5 300.5" fill-rule="nonzero"/><path stroke="#cccccc" stroke-width="1.0" stroke-linecap="butt" d="M498.5 25.5L498.5 300.5" fill-rule="nonzero"/><path stroke="#cccccc" stroke-width="1.0" stroke-linecap="butt" d="M574.5 25.5L574.5 300.5" fill-rule="nonzero"/><path stroke="#cccccc" stroke-width="1.0" stroke-linecap="butt" d="M126.5 243.5L581.5 243.5" fill-rule="nonzero"/><path stroke="#cccccc" stroke-width="1.0" stroke-linecap="butt" d="M126.5 177.5L581.5 177.5" fill-rule="nonzero"/><path stroke="#cccccc" stroke-width="1.0" stroke-linecap="butt" d="M126.5 111.5L581.5 111.5" fill-rule="nonzero"/><path stroke="#cccccc" stroke-width="1.0" stroke-linecap="butt" d="M126.5 44.5L581.5 44.5" fill-rule="nonzero"/><clipPath id="id_0"><path d="M126.55 25.55L581.45 25.55L581.45 300.45L126.55 300.45L126.55 25.55Z" clip-rule="nonzero"/></clipPath><path stroke="#4285f4" stroke-width="2.0" stroke-linecap="butt" clip-path="url(#id_0)" d="M133.341 300.45L194.21245 274.32855L270.30176 226.0063L346.39108 176.79796L422.48038 127.61795L452.9161 107.57735L483.35184 87.63662L513.78754 67.88359L544.22327 46.700665L559.44116 36.34947L574.659 25.55" fill-rule="nonzero"/><path fill="#4285f4" clip-path="url(#id_0)" d="M137.841 300.45C137.841 302.93527 135.82628 304.95 133.341 304.95C130.85571 304.95 128.841 302.93527 128.841 300.45C128.841 297.96472 130.85571 295.95 133.341 295.95C135.82628 295.95 137.841 297.96472 137.841 300.45Z" fill-rule="nonzero"/><path fill="#4285f4" clip-path="url(#id_0)" d="M198.71245 274.32855C198.71245 276.8138 196.69772 278.82855 194.21245 278.82855C191.72717 278.82855 189.71245 276.8138 189.71245 274.32855C189.71245 271.84326 191.72717 269.82855 194.21245 269.82855C196.69772 269.82855 198.71245 271.84326 198.71245 274.32855Z" fill-rule="nonzero"/><path fill="#4285f4" clip-path="url(#id_0)" d="M274.80176 226.0063C274.80176 228.49158 272.78705 230.5063 270.30176 230.5063C267.81647 230.5063 265.80176 228.49158 265.80176 226.0063C265.80176 223.52103 267.81647 221.5063 270.30176 221.5063C272.78705 221.5063 274.80176 223.52103 274.80176 226.0063Z" fill-rule="nonzero"/><path fill="#4285f4" clip-path="url(#id_0)" d="M350.89108 176.79796C350.89108 179.28323 348.87634 181.29796 346.39108 181.29796C343.9058 181.29796 341.89108 179.28323 341.89108 176.79796C341.89108 174.31267 343.9058 172.29796 346.39108 172.29796C348.87634 172.29796 350.89108 174.31267 350.89108 176.79796Z" fill-rule="nonzero"/><path fill="#4285f4" clip-path="url(#id_0)" d="M426.98038 127.61795C426.98038 130.10324 424.96567 132.11795 422.48038 132.11795C419.9951 132.11795 417.98038 130.10324 417.98038 127.61795C417.98038 125.132675 419.9951 123.11795 422.48038 123.11795C424.96567 123.11795 426.98038 125.132675 426.98038 127.61795Z" fill-rule="nonzero"/><path fill="#4285f4" clip-path="url(#id_0)" d="M457.4161 107.57735C457.4161 110.06263 455.4014 112.07735 452.9161 112.07735C450.43082 112.07735 448.4161 110.06263 448.4161 107.57735C448.4161 105.092064 450.43082 103.07735 452.9161 103.07735C455.4014 103.07735 457.4161 105.092064 457.4161 107.57735Z" fill-rule="nonzero"/><path fill="#4285f4" clip-path="url(#id_0)" d="M487.85184 87.63662C487.85184 90.1219 485.8371 92.13662 483.35184 92.13662C480.86655 92.13662 478.85184 90.1219 478.85184 87.63662C478.85184 85.15134 480.86655 83.13662 483.35184 83.13662C485.8371 83.13662 487.85184 85.15134 487.85184 87.63662Z" fill-rule="nonzero"/><path fill="#4285f4" clip-path="url(#id_0)" d="M518.28754 67.88359C518.28754 70.36887 516.2728 72.38359 513.78754 72.38359C511.30228 72.38359 509.28754 70.36887 509.28754 67.88359C509.28754 65.39831 511.30228 63.38359 513.78754 63.38359C516.2728 63.38359 518.28754 65.39831 518.28754 67.88359Z" fill-rule="nonzero"/><path fill="#4285f4" clip-path="url(#id_0)" d="M548.72327 46.700665C548.72327 49.185947 546.70856 51.200665 544.22327 51.200665C541.738 51.200665 539.72327 49.185947 539.72327 46.700665C539.72327 44.21538 541.738 42.200665 544.22327 42.200665C546.70856 42.200665 548.72327 44.21538 548.72327 46.700665Z" fill-rule="nonzero"/><path fill="#4285f4" clip-path="url(#id_0)" d="M563.94116 36.34947C563.94116 38.83475 561.9264 40.84947 559.44116 40.84947C556.9559 40.84947 554.94116 38.83475 554.94116 36.34947C554.94116 33.864185 556.9559 31.849468 559.44116 31.849468C561.9264 31.849468 563.94116 33.864185 563.94116 36.34947Z" fill-rule="nonzero"/><path fill="#4285f4" clip-path="url(#id_0)" d="M579.159 25.55C579.159 28.035282 577.1443 30.05 574.659 30.05C572.1737 30.05 570.159 28.035282 570.159 25.55C570.159 23.064718 572.1737 21.05 574.659 21.05C577.1443 21.05 579.159 23.064718 579.159 25.55Z" fill-rule="nonzero"/><path fill="#000000" d="M318.34375 349.02814Q316.75 350.2 312.85938 350.52814L312.67188 349.6375Q315.90625 349.45 317.35938 348.7Q316.28125 348.41876 315.25 348.23126L314.96875 348.5594L314.125 348.09064L315.39062 346.6844L312.15625 346.6844L312.15625 345.9344L316.0 345.9344L316.75 344.90314L314.26562 344.90314L314.26562 345.23126L313.46875 345.23126L313.46875 342.09064L315.90625 342.09064L315.90625 341.0594L312.4375 341.0594L312.4375 340.3094L322.51562 340.3094L322.51562 341.0594L319.04688 341.0594L319.04688 342.09064L321.48438 342.09064L321.48438 345.1844L320.6875 345.1844L320.6875 344.90314L317.17188 344.90314L317.64062 345.1375Q317.875 345.27814 317.5 345.3719L317.03125 345.9344L322.84375 345.9344L322.84375 346.6844L320.45312 346.6844Q319.89062 347.6219 319.09375 348.3719Q320.59375 348.79376 322.32812 349.59064L321.71875 350.4344Q320.3125 349.6844 318.34375 349.02814ZM316.5625 346.6844L315.76562 347.575Q316.84375 347.71564 318.15625 348.04376Q318.90625 347.48126 319.32812 346.6844L316.5625 346.6844ZM316.70312 341.0594L316.70312 342.09064L318.25 342.09064L318.25 341.0594L316.70312 341.0594ZM314.26562 344.15314L315.90625 344.15314L315.90625 342.84064L314.26562 342.84064L314.26562 344.15314ZM316.70312 342.84064L316.70312 344.15314L318.25 344.15314L318.25 342.84064L316.70312 342.84064ZM319.04688 342.84064L319.04688 344.15314L320.6875 344.15314L320.6875 342.84064L319.04688 342.84064ZM328.9375 346.16876Q329.82812 345.5125 330.57812 344.66876L331.42188 345.1844Q331.60938 345.41876 331.23438 345.3719Q330.53125 345.98126 329.45312 346.73126L332.40625 346.59064L331.70312 345.98126L332.35938 345.46564Q333.57812 346.3094 334.46875 347.3875L333.71875 347.9969L333.01562 347.2469L329.875 347.48126L329.875 350.4344L328.9375 350.4344L328.9375 347.52814L325.04688 347.66876Q325.0 347.9969 324.8125 347.8094L324.53125 346.77814L328.23438 346.77814Q327.34375 345.9344 326.40625 345.5125L326.92188 344.90314L327.67188 345.27814Q328.09375 344.95 328.51562 344.4344L324.10938 344.4344L324.10938 343.6844L328.9375 343.6844L328.9375 342.98126L325.60938 342.98126L325.60938 342.23126L328.9375 342.23126L328.9375 341.48126L325.0 341.48126L325.0 340.73126L328.9375 340.73126L328.9375 339.7469L329.82812 339.7469Q330.20312 339.79376 329.875 340.02814L329.875 340.73126L333.90625 340.73126L333.90625 341.48126L329.875 341.48126L329.875 342.23126L333.25 342.23126L333.25 342.98126L329.875 342.98126L329.875 343.6844L334.75 343.6844L334.75 344.4344L329.54688 344.4344Q328.9375 345.1375 328.32812 345.7L328.9375 346.16876ZM331.84375 347.85626Q333.01562 348.8875 334.375 349.21564L334.0 350.10626Q332.3125 349.6844 331.23438 348.46564L331.84375 347.85626ZM327.90625 348.7Q328.0 348.9344 327.625 348.8875Q326.3125 349.91876 324.85938 350.2469L324.4375 349.40314Q326.07812 348.98126 327.20312 347.9969L327.90625 348.7ZM344.21875 346.8719Q344.875 345.60626 345.01562 343.02814L343.42188 343.02814Q343.5625 345.60626 344.21875 346.8719ZM345.95312 343.02814Q345.85938 345.9344 344.82812 347.71564Q345.57812 348.65314 346.9375 349.35626L346.32812 350.3875Q344.82812 349.40314 344.21875 348.5125Q343.14062 349.73126 340.89062 350.6219L340.42188 349.6844Q342.85938 348.7 343.65625 347.66876Q342.85938 346.1219 342.76562 344.575Q342.48438 345.27814 342.20312 345.65314L341.40625 345.04376Q342.8125 342.98126 343.09375 339.9344L344.07812 340.16876Q344.35938 340.35626 343.9375 340.45Q343.79688 341.29376 343.5625 342.1375L346.75 342.1375L346.75 343.02814L345.95312 343.02814ZM341.59375 340.77814Q341.3125 341.48126 340.9375 341.95L340.1875 341.52814Q340.5625 340.91876 340.89062 340.1219L341.73438 340.54376Q341.92188 340.73126 341.59375 340.77814ZM338.59375 347.3875Q339.25 347.575 339.76562 347.8094Q340.14062 347.3875 340.375 346.54376L339.01562 346.54376Q338.82812 346.96564 338.59375 347.3875ZM337.9375 348.5594L337.1875 348.1375Q337.65625 347.4344 338.125 346.54376L336.34375 346.54376L336.34375 345.79376L338.40625 345.79376Q338.6875 345.1844 338.82812 344.7625L339.71875 344.9969Q339.90625 345.1844 339.57812 345.23126L339.29688 345.79376L341.96875 345.79376L341.96875 346.54376L341.26562 346.54376Q341.03125 347.48126 340.5625 348.1375Q340.98438 348.325 341.45312 348.60626L341.03125 349.35626Q340.51562 349.02814 340.09375 348.84064Q338.875 350.0594 336.8125 350.34064L336.48438 349.4969Q338.3125 349.3094 339.29688 348.46564Q338.78125 348.23126 338.26562 348.04376L337.9375 348.5594ZM338.875 339.7469L339.625 339.7469Q340.0 339.79376 339.67188 340.02814L339.67188 342.04376L342.0625 342.04376L342.0625 342.79376L340.09375 342.79376Q340.60938 343.40314 341.6875 343.96564L341.17188 344.7625Q340.375 344.29376 339.67188 343.45L339.67188 344.575L338.875 344.575L338.875 343.6844Q338.125 344.6219 336.8125 345.3719L336.20312 344.6219Q337.65625 343.8719 338.59375 342.79376L336.4375 342.79376L336.4375 342.04376L338.875 342.04376L338.875 339.7469ZM337.5625 341.90314Q337.23438 341.2 336.71875 340.6844L337.46875 340.21564Q338.03125 340.77814 338.3125 341.3875L337.5625 341.90314Z" fill-rule="nonzero"/><path fill="#000000" d="M350.3125 351.98126Q349.4375 350.8719 348.82812 349.40314Q348.23438 347.91876 348.23438 346.34064Q348.23438 344.95 348.67188 343.66876Q349.20312 342.1844 350.3125 340.71564L351.0625 340.71564Q350.35938 341.9344 350.125 342.45Q349.76562 343.2625 349.5625 344.1375Q349.3125 345.23126 349.3125 346.34064Q349.3125 349.16876 351.0625 351.98126L350.3125 351.98126ZM352.26562 349.45L352.26562 340.85626L353.32812 340.85626L353.32812 349.45L352.26562 349.45ZM354.90625 346.34064Q354.90625 344.60626 355.85938 343.77814Q356.65625 343.09064 357.8125 343.09064Q359.09375 343.09064 359.90625 343.9344Q360.73438 344.7625 360.73438 346.2469Q360.73438 347.45 360.375 348.1375Q360.01562 348.825 359.3125 349.21564Q358.625 349.59064 357.8125 349.59064Q356.51562 349.59064 355.70312 348.7625Q354.90625 347.91876 354.90625 346.34064ZM355.98438 346.34064Q355.98438 347.52814 356.5 348.1219Q357.03125 348.71564 357.8125 348.71564Q358.60938 348.71564 359.125 348.1219Q359.64062 347.52814 359.64062 346.3094Q359.64062 345.15314 359.10938 344.5594Q358.59375 343.96564 357.8125 343.96564Q357.03125 343.96564 356.5 344.5594Q355.98438 345.1375 355.98438 346.34064ZM362.09375 349.96564L363.125 350.1219Q363.1875 350.59064 363.48438 350.8094Q363.875 351.10626 364.54688 351.10626Q365.28125 351.10626 365.67188 350.8094Q366.07812 350.5125 366.21875 349.9969Q366.3125 349.66876 366.29688 348.6375Q365.60938 349.45 364.57812 349.45Q363.29688 349.45 362.59375 348.52814Q361.89062 347.59064 361.89062 346.3094Q361.89062 345.41876 362.20312 344.66876Q362.53125 343.90314 363.14062 343.4969Q363.75 343.09064 364.57812 343.09064Q365.6875 343.09064 366.40625 343.98126L366.40625 343.23126L367.375 343.23126L367.375 348.60626Q367.375 350.0594 367.07812 350.66876Q366.78125 351.27814 366.14062 351.6219Q365.5 351.98126 364.5625 351.98126Q363.45312 351.98126 362.76562 351.48126Q362.07812 350.98126 362.09375 349.96564ZM362.96875 346.23126Q362.96875 347.45 363.45312 348.0125Q363.9375 348.575 364.67188 348.575Q365.40625 348.575 365.89062 348.0125Q366.39062 347.45 366.39062 346.2625Q366.39062 345.1219 365.875 344.54376Q365.375 343.96564 364.65625 343.96564Q363.95312 343.96564 363.45312 344.54376Q362.96875 345.10626 362.96875 346.23126ZM368.3125 351.84064L368.3125 351.075L375.3125 351.075L375.3125 351.84064L368.3125 351.84064ZM381.54688 348.4344L381.54688 349.45L375.85938 349.45Q375.85938 349.075 375.98438 348.71564Q376.20312 348.1375 376.67188 347.575Q377.15625 347.0125 378.0625 346.27814Q379.46875 345.1219 379.95312 344.45Q380.45312 343.77814 380.45312 343.1844Q380.45312 342.5594 380.0 342.1375Q379.54688 341.7 378.82812 341.7Q378.0625 341.7 377.60938 342.15314Q377.15625 342.60626 377.14062 343.41876L376.0625 343.3094Q376.17188 342.09064 376.89062 341.46564Q377.625 340.825 378.85938 340.825Q380.09375 340.825 380.8125 341.5125Q381.53125 342.2 381.53125 343.21564Q381.53125 343.73126 381.3125 344.23126Q381.10938 344.71564 380.60938 345.27814Q380.125 345.825 379.0 346.77814Q378.04688 347.575 377.76562 347.8719Q377.5 348.15314 377.32812 348.4344L381.54688 348.4344ZM386.29688 349.45L386.29688 343.23126L387.23438 343.23126L387.23438 344.10626Q387.92188 343.09064 389.21875 343.09064Q389.78125 343.09064 390.25 343.29376Q390.73438 343.4969 390.96875 343.825Q391.20312 344.15314 391.29688 344.59064Q391.34375 344.8875 391.34375 345.6219L391.34375 349.45L390.29688 349.45L390.29688 345.66876Q390.29688 345.0125 390.17188 344.7Q390.04688 344.3875 389.73438 344.2Q389.42188 343.9969 389.0 343.9969Q388.32812 343.9969 387.82812 344.4344Q387.34375 344.85626 387.34375 346.04376L387.34375 349.45L386.29688 349.45ZM393.98438 351.98126L393.23438 351.98126Q394.98438 349.16876 394.98438 346.34064Q394.98438 345.2469 394.73438 344.15314Q394.53125 343.27814 394.17188 342.46564Q393.9375 341.95 393.23438 340.71564L393.98438 340.71564Q395.07812 342.1844 395.60938 343.66876Q396.0625 344.95 396.0625 346.34064Q396.0625 347.91876 395.45312 349.40314Q394.84375 350.8719 393.98438 351.98126Z" fill-rule="nonzero"/><path fill="#000000" d="M26.081263 212.4375Q24.018763 210.9375 19.940638 210.46875L20.128138 209.4375Q20.315638 209.25 20.362513 209.57812L21.159388 209.71875L21.159388 207.51562L22.050013 207.51562Q25.003138 207.65625 27.206263 208.6875Q28.987513 207.70312 28.987513 205.64062L28.987513 201.70312L30.018763 201.89062L30.018763 205.64062Q30.018763 207.89062 28.096888 209.10938Q29.784388 210.28125 30.534388 211.3125L29.643763 211.92188Q28.800013 210.65625 27.112513 209.67188Q25.893763 210.23438 24.534388 210.5625Q25.893763 211.125 26.831263 211.73438L26.081263 212.4375ZM22.893763 210.04688Q24.862513 209.8125 26.175013 209.25Q24.487513 208.54688 22.050013 208.45312L22.050013 209.90625L22.893763 210.04688ZM26.925013 202.875Q26.925013 202.64062 25.612513 202.59375L25.846888 201.70312Q27.815638 201.70312 27.815638 202.59375L27.815638 203.39062Q27.815638 204.1875 26.971888 204.1875L21.721888 204.1875L21.721888 205.73438L25.425013 205.73438Q26.971888 205.73438 28.378138 206.85938L27.581263 207.60938Q26.784388 206.67188 25.003138 206.67188L20.831263 206.67188L20.831263 203.25L26.737513 203.25Q26.925013 203.25 26.925013 203.10938L26.925013 202.875ZM27.721888 196.35938Q28.378138 198.1875 28.800013 199.78125Q29.175013 199.92188 28.940638 200.0625L27.862513 200.39062L27.534388 198.75L24.956263 198.75L24.956263 200.01562L24.065638 200.01562L24.065638 198.75L21.581263 198.75L21.581263 200.15625L20.690638 200.15625L20.690638 196.40625L21.581263 196.40625L21.581263 197.8125L24.065638 197.8125L24.065638 196.54688L24.956263 196.54688L24.956263 197.8125L27.300013 197.8125Q27.253138 197.4375 26.925013 196.45312L27.721888 196.35938ZM25.518763 192.65625L26.878138 192.65625L26.878138 190.03125L27.768763 190.03125L27.768763 192.65625L29.221888 192.65625L29.221888 189.5625L30.112513 189.5625L30.112513 197.01562L29.221888 197.01562L29.221888 193.45312L27.768763 193.45312L27.768763 195.98438L26.878138 195.98438L26.878138 193.45312L25.518763 193.45312L25.518763 195.14062L26.128138 195.14062L26.128138 195.9375L20.362513 195.9375L20.362513 190.125L25.940638 190.125L25.940638 190.92188L25.518763 190.92188L25.518763 192.65625ZM23.362513 190.92188L23.362513 192.65625L24.768763 192.65625L24.768763 190.92188L23.362513 190.92188ZM21.112513 190.92188L21.112513 192.65625L22.612513 192.65625L22.612513 190.92188L21.112513 190.92188ZM22.612513 193.45312L21.112513 193.45312L21.112513 195.14062L22.612513 195.14062L22.612513 193.45312ZM23.362513 193.45312L23.362513 195.14062L24.768763 195.14062L24.768763 193.45312L23.362513 193.45312ZM28.987513 182.29688Q28.003138 182.85938 27.581263 183.23438L27.018763 182.4375Q27.440638 182.0625 28.378138 181.45312L28.987513 182.29688ZM29.643763 180.46875Q29.643763 180.28125 29.456263 180.28125L26.690638 180.28125L26.690638 184.21875L25.800013 184.21875L25.800013 180.28125L24.581263 180.28125L24.581263 184.73438L29.034388 184.73438L29.034388 185.53125L28.659388 185.53125L28.659388 187.125L29.503138 187.125L29.503138 187.92188L20.878138 187.92188L20.878138 184.73438L23.690638 184.73438L23.690638 181.875L22.331263 181.875L22.331263 183.89062L21.440638 183.89062L21.440638 181.875L19.846888 181.875L19.846888 180.98438Q19.893763 180.60938 20.128138 180.9375L21.440638 180.9375L21.440638 178.54688L22.331263 178.54688L22.331263 180.9375L23.690638 180.9375L23.690638 177.65625L24.581263 177.65625L24.581263 179.34375L25.800013 179.34375L25.800013 177.9375L26.690638 177.9375L26.690638 179.34375L29.784388 179.34375Q30.534388 179.34375 30.534388 180.09375L30.534388 181.07812L29.643763 181.26562L29.643763 180.46875ZM24.159388 187.125L24.159388 185.53125L21.768763 185.53125L21.768763 187.125L24.159388 187.125ZM27.768763 187.125L27.768763 185.53125L25.050013 185.53125L25.050013 187.125L27.768763 187.125ZM29.596888 167.29688Q29.596888 167.10938 29.409388 167.10938L24.018763 167.10938L24.018763 168.79688L24.018763 170.48438L20.268763 170.48438L20.268763 166.17188L29.737513 166.17188Q30.487513 166.17188 30.487513 166.92188L30.487513 167.85938L29.596888 167.95312L29.596888 167.29688ZM27.346888 169.78125L27.346888 172.26562L28.284388 172.26562L28.284388 169.78125L27.346888 169.78125ZM25.565638 169.78125L25.565638 172.26562L26.596888 172.26562L26.596888 169.78125L25.565638 169.78125ZM24.815638 168.84375L29.409388 168.84375L29.409388 169.78125L29.034388 169.78125L29.034388 172.26562L29.784388 172.26562L29.784388 173.20312L24.815638 173.20312L24.815638 168.84375ZM21.768763 167.10938L21.018763 167.10938L21.018763 169.54688L21.768763 169.54688L21.768763 167.10938ZM22.518763 167.10938L22.518763 169.54688L23.268763 169.54688L23.268763 167.10938L22.518763 167.10938ZM22.518763 172.64062L22.518763 175.03125L23.268763 175.03125L23.268763 172.64062L22.518763 172.64062ZM21.768763 172.64062L21.018763 172.64062L21.018763 175.03125L21.768763 175.03125L21.768763 172.64062ZM24.018763 171.70312L24.018763 175.03125L30.534388 175.03125L30.534388 175.96875L20.268763 175.96875L20.268763 171.70312L24.018763 171.70312Z" fill-rule="nonzero"/><path fill="#000000" d="M32.08126 162.1875Q30.971888 163.0625 29.503138 163.67188Q28.018763 164.26562 26.440638 164.26562Q25.050013 164.26562 23.768763 163.82812Q22.284388 163.29688 20.815638 162.1875L20.815638 161.4375Q22.034388 162.14062 22.550013 162.375Q23.362513 162.73438 24.237513 162.9375Q25.331263 163.1875 26.440638 163.1875Q29.268763 163.1875 32.08126 161.4375L32.08126 162.1875ZM29.550013 160.20312L23.331263 160.20312L23.331263 159.26562L24.206263 159.26562Q23.190638 158.57812 23.190638 157.28125Q23.190638 156.71875 23.393763 156.25Q23.596888 155.76562 23.925013 155.53125Q24.253138 155.29688 24.690638 155.20312Q24.987513 155.15625 25.721888 155.15625L29.550013 155.15625L29.550013 156.20312L25.768763 156.20312Q25.112513 156.20312 24.800013 156.32812Q24.487513 156.45312 24.300013 156.76562Q24.096888 157.07812 24.096888 157.5Q24.096888 158.17188 24.534388 158.67188Q24.956263 159.15625 26.143763 159.15625L29.550013 159.15625L29.550013 160.20312ZM27.690638 153.625L27.534388 152.59375Q28.159388 152.5 28.487513 152.10938Q28.815638 151.70312 28.815638 150.96875Q28.815638 150.25 28.534388 149.90625Q28.237513 149.54688 27.831263 149.54688Q27.471888 149.54688 27.268763 149.85938Q27.128138 150.07812 26.909388 150.9375Q26.612513 152.09375 26.409388 152.54688Q26.190638 152.98438 25.815638 153.21875Q25.440638 153.45312 24.971888 153.45312Q24.565638 153.45312 24.206263 153.26562Q23.846888 153.07812 23.612513 152.75Q23.440638 152.5 23.315638 152.07812Q23.190638 151.65625 23.190638 151.15625Q23.190638 150.4375 23.409388 149.89062Q23.612513 149.32812 23.971888 149.0625Q24.331263 148.79688 24.925013 148.70312L25.065638 149.73438Q24.596888 149.79688 24.331263 150.14062Q24.050013 150.46875 24.050013 151.09375Q24.050013 151.8125 24.300013 152.125Q24.534388 152.4375 24.862513 152.4375Q25.065638 152.4375 25.221888 152.3125Q25.393763 152.17188 25.503138 151.90625Q25.565638 151.75 25.768763 150.96875Q26.081263 149.84375 26.268763 149.40625Q26.456263 148.96875 26.815638 148.71875Q27.175013 148.46875 27.721888 148.46875Q28.253138 148.46875 28.721888 148.78125Q29.175013 149.07812 29.440638 149.65625Q29.690638 150.23438 29.690638 150.96875Q29.690638 152.1875 29.190638 152.82812Q28.675013 153.45312 27.690638 153.625ZM29.690638 147.0L20.815638 144.51562L20.815638 143.67188L29.690638 146.15625L29.690638 147.0ZM26.440638 143.59375Q24.706263 143.59375 23.878138 142.64062Q23.190638 141.84375 23.190638 140.6875Q23.190638 139.40625 24.034388 138.59375Q24.862513 137.76562 26.346888 137.76562Q27.550013 137.76562 28.237513 138.125Q28.925013 138.48438 29.315638 139.1875Q29.690638 139.875 29.690638 140.6875Q29.690638 141.98438 28.862513 142.79688Q28.018763 143.59375 26.440638 143.59375ZM26.440638 142.51562Q27.628138 142.51562 28.221888 142.0Q28.815638 141.46875 28.815638 140.6875Q28.815638 139.89062 28.221888 139.375Q27.628138 138.85938 26.409388 138.85938Q25.253138 138.85938 24.659388 139.39062Q24.065638 139.90625 24.065638 140.6875Q24.065638 141.46875 24.659388 142.0Q25.237513 142.51562 26.440638 142.51562ZM31.940638 136.20312L23.331263 136.20312L23.331263 135.25L24.128138 135.25Q23.659388 134.90625 23.425013 134.48438Q23.190638 134.04688 23.190638 133.4375Q23.190638 132.64062 23.596888 132.03125Q24.003138 131.42188 24.753138 131.125Q25.503138 130.8125 26.393763 130.8125Q27.346888 130.8125 28.112513 131.15625Q28.878138 131.48438 29.284388 132.14062Q29.690638 132.79688 29.690638 133.51562Q29.690638 134.04688 29.471888 134.46875Q29.237513 134.89062 28.909388 135.15625L31.940638 135.15625L31.940638 136.20312ZM26.471888 135.25Q27.675013 135.25 28.253138 134.76562Q28.815638 134.28125 28.815638 133.59375Q28.815638 132.89062 28.221888 132.39062Q27.628138 131.89062 26.378138 131.89062Q25.190638 131.89062 24.612513 132.375Q24.018763 132.85938 24.018763 133.54688Q24.018763 134.21875 24.643763 134.73438Q25.268763 135.25 26.471888 135.25ZM32.08126 128.51562L32.08126 129.26562Q29.268763 127.515625 26.440638 127.515625Q25.346888 127.515625 24.253138 127.765625Q23.378138 127.96875 22.565638 128.32812Q22.050013 128.5625 20.815638 129.26562L20.815638 128.51562Q22.284388 127.421875 23.768763 126.890625Q25.050013 126.4375 26.440638 126.4375Q28.018763 126.4375 29.503138 127.046875Q30.971888 127.65625 32.08126 128.51562Z" fill-rule="nonzero"/><path fill="#000000" d="M97.01875 247.84985L95.97188 247.84985L95.97188 241.1311Q95.58125 241.49048 94.95625 241.86548Q94.34688 242.22485 93.8625 242.39673L93.8625 241.3811Q94.7375 240.95923 95.39375 240.3811Q96.06563 239.78735 96.34688 239.22485L97.01875 239.22485L97.01875 247.84985ZM100.05 243.61548Q100.05 242.08423 100.3625 241.16235Q100.675 240.22485 101.28438 239.72485Q101.90938 239.22485 102.84688 239.22485Q103.53438 239.22485 104.05 239.5061Q104.58125 239.78735 104.925 240.3186Q105.26875 240.83423 105.45625 241.58423Q105.64375 242.33423 105.64375 243.61548Q105.64375 245.1311 105.33125 246.05298Q105.03438 246.97485 104.40938 247.49048Q103.8 247.99048 102.84688 247.99048Q101.6125 247.99048 100.89375 247.09985Q100.05 246.03735 100.05 243.61548ZM101.12813 243.61548Q101.12813 245.72485 101.62813 246.42798Q102.12813 247.1311 102.84688 247.1311Q103.58125 247.1311 104.06563 246.42798Q104.56563 245.72485 104.56563 243.61548Q104.56563 241.49048 104.06563 240.80298Q103.58125 240.09985 102.83125 240.09985Q102.1125 240.09985 101.675 240.70923Q101.12813 241.49048 101.12813 243.61548ZM107.05 243.61548Q107.05 242.08423 107.3625 241.16235Q107.675 240.22485 108.28438 239.72485Q108.90938 239.22485 109.84688 239.22485Q110.53438 239.22485 111.05 239.5061Q111.58125 239.78735 111.925 240.3186Q112.26875 240.83423 112.45625 241.58423Q112.64375 242.33423 112.64375 243.61548Q112.64375 245.1311 112.33125 246.05298Q112.03438 246.97485 111.40938 247.49048Q110.8 247.99048 109.84688 247.99048Q108.6125 247.99048 107.89375 247.09985Q107.05 246.03735 107.05 243.61548ZM108.12813 243.61548Q108.12813 245.72485 108.62813 246.42798Q109.12813 247.1311 109.84688 247.1311Q110.58125 247.1311 111.06563 246.42798Q111.56563 245.72485 111.56563 243.61548Q111.56563 241.49048 111.06563 240.80298Q110.58125 240.09985 109.83125 240.09985Q109.1125 240.09985 108.675 240.70923Q108.12813 241.49048 108.12813 243.61548ZM114.05 243.61548Q114.05 242.08423 114.3625 241.16235Q114.675 240.22485 115.28438 239.72485Q115.90938 239.22485 116.84688 239.22485Q117.53438 239.22485 118.05 239.5061Q118.58125 239.78735 118.925 240.3186Q119.26875 240.83423 119.45625 241.58423Q119.64375 242.33423 119.64375 243.61548Q119.64375 245.1311 119.33125 246.05298Q119.03438 246.97485 118.40938 247.49048Q117.8 247.99048 116.84688 247.99048Q115.6125 247.99048 114.89375 247.09985Q114.05 246.03735 114.05 243.61548ZM115.12813 243.61548Q115.12813 245.72485 115.62813 246.42798Q116.12813 247.1311 116.84688 247.1311Q117.58125 247.1311 118.06563 246.42798Q118.56563 245.72485 118.56563 243.61548Q118.56563 241.49048 118.06563 240.80298Q117.58125 240.09985 116.83125 240.09985Q116.1125 240.09985 115.675 240.70923Q115.12813 241.49048 115.12813 243.61548Z" fill-rule="nonzero"/><path fill="#000000" d="M83.01875 181.49464L81.97188 181.49464L81.97188 174.7759Q81.58125 175.13527 80.95625 175.51027Q80.34688 175.86964 79.8625 176.04152L79.8625 175.0259Q80.7375 174.60402 81.39375 174.0259Q82.06563 173.43214 82.34688 172.86964L83.01875 172.86964L83.01875 181.49464ZM86.05 177.26027Q86.05 175.72902 86.3625 174.80714Q86.675 173.86964 87.28438 173.36964Q87.90938 172.86964 88.84688 172.86964Q89.53438 172.86964 90.05 173.1509Q90.58125 173.43214 90.925 173.9634Q91.26875 174.47902 91.45625 175.22902Q91.64375 175.97902 91.64375 177.26027Q91.64375 178.7759 91.33125 179.69777Q91.03438 180.61964 90.40938 181.13527Q89.8 181.63527 88.84688 181.63527Q87.6125 181.63527 86.89375 180.74464Q86.05 179.68214 86.05 177.26027ZM87.12813 177.26027Q87.12813 179.36964 87.62813 180.07277Q88.12813 180.7759 88.84688 180.7759Q89.58125 180.7759 90.06563 180.07277Q90.56563 179.36964 90.56563 177.26027Q90.56563 175.13527 90.06563 174.44777Q89.58125 173.74464 88.83125 173.74464Q88.1125 173.74464 87.675 174.35402Q87.12813 175.13527 87.12813 177.26027ZM93.05 177.26027Q93.05 175.72902 93.3625 174.80714Q93.675 173.86964 94.28438 173.36964Q94.90938 172.86964 95.84688 172.86964Q96.53438 172.86964 97.05 173.1509Q97.58125 173.43214 97.925 173.9634Q98.26875 174.47902 98.45625 175.22902Q98.64375 175.97902 98.64375 177.26027Q98.64375 178.7759 98.33125 179.69777Q98.03438 180.61964 97.40938 181.13527Q96.8 181.63527 95.84688 181.63527Q94.6125 181.63527 93.89375 180.74464Q93.05 179.68214 93.05 177.26027ZM94.12813 177.26027Q94.12813 179.36964 94.62813 180.07277Q95.12813 180.7759 95.84688 180.7759Q96.58125 180.7759 97.06563 180.07277Q97.56563 179.36964 97.56563 177.26027Q97.56563 175.13527 97.06563 174.44777Q96.58125 173.74464 95.83125 173.74464Q95.1125 173.74464 94.675 174.35402Q94.12813 175.13527 94.12813 177.26027ZM100.05 177.26027Q100.05 175.72902 100.3625 174.80714Q100.675 173.86964 101.28438 173.36964Q101.90938 172.86964 102.84688 172.86964Q103.53438 172.86964 104.05 173.1509Q104.58125 173.43214 104.925 173.9634Q105.26875 174.47902 105.45625 175.22902Q105.64375 175.97902 105.64375 177.26027Q105.64375 178.7759 105.33125 179.69777Q105.03438 180.61964 104.40938 181.13527Q103.8 181.63527 102.84688 181.63527Q101.6125 181.63527 100.89375 180.74464Q100.05 179.68214 100.05 177.26027ZM101.12813 177.26027Q101.12813 179.36964 101.62813 180.07277Q102.12813 180.7759 102.84688 180.7759Q103.58125 180.7759 104.06563 180.07277Q104.56563 179.36964 104.56563 177.26027Q104.56563 175.13527 104.06563 174.44777Q103.58125 173.74464 102.83125 173.74464Q102.1125 173.74464 101.675 174.35402Q101.12813 175.13527 101.12813 177.26027ZM107.05 177.26027Q107.05 175.72902 107.3625 174.80714Q107.675 173.86964 108.28438 173.36964Q108.90938 172.86964 109.84688 172.86964Q110.53438 172.86964 111.05 173.1509Q111.58125 173.43214 111.925 173.9634Q112.26875 174.47902 112.45625 175.22902Q112.64375 175.97902 112.64375 177.26027Q112.64375 178.7759 112.33125 179.69777Q112.03438 180.61964 111.40938 181.13527Q110.8 181.63527 109.84688 181.63527Q108.6125 181.63527 107.89375 180.74464Q107.05 179.68214 107.05 177.26027ZM108.12813 177.26027Q108.12813 179.36964 108.62813 180.07277Q109.12813 180.7759 109.84688 180.7759Q110.58125 180.7759 111.06563 180.07277Q111.56563 179.36964 111.56563 177.26027Q111.56563 175.13527 111.06563 174.44777Q110.58125 173.74464 109.83125 173.74464Q109.1125 173.74464 108.675 174.35402Q108.12813 175.13527 108.12813 177.26027ZM114.05 177.26027Q114.05 175.72902 114.3625 174.80714Q114.675 173.86964 115.28438 173.36964Q115.90938 172.86964 116.84688 172.86964Q117.53438 172.86964 118.05 173.1509Q118.58125 173.43214 118.925 173.9634Q119.26875 174.47902 119.45625 175.22902Q119.64375 175.97902 119.64375 177.26027Q119.64375 178.7759 119.33125 179.69777Q119.03438 180.61964 118.40938 181.13527Q117.8 181.63527 116.84688 181.63527Q115.6125 181.63527 114.89375 180.74464Q114.05 179.68214 114.05 177.26027ZM115.12813 177.26027Q115.12813 179.36964 115.62813 180.07277Q116.12813 180.7759 116.84688 180.7759Q117.58125 180.7759 118.06563 180.07277Q118.56563 179.36964 118.56563 177.26027Q118.56563 175.13527 118.06563 174.44777Q117.58125 173.74464 116.83125 173.74464Q116.1125 173.74464 115.675 174.35402Q115.12813 175.13527 115.12813 177.26027Z" fill-rule="nonzero"/><path fill="#000000" d="M69.01875 115.13945L67.97188 115.13945L67.97188 108.4207Q67.58125 108.780075 66.95625 109.155075Q66.34688 109.51445 65.8625 109.686325L65.8625 108.6707Q66.7375 108.248825 67.39375 107.6707Q68.06563 107.07695 68.34688 106.51445L69.01875 106.51445L69.01875 115.13945ZM72.05 110.905075Q72.05 109.373825 72.3625 108.45195Q72.675 107.51445 73.28438 107.01445Q73.90938 106.51445 74.84688 106.51445Q75.53438 106.51445 76.05 106.7957Q76.58125 107.07695 76.925 107.6082Q77.26875 108.123825 77.45625 108.873825Q77.64375 109.623825 77.64375 110.905075Q77.64375 112.4207 77.33125 113.342575Q77.03438 114.26445 76.40938 114.780075Q75.8 115.280075 74.84688 115.280075Q73.6125 115.280075 72.89375 114.38945Q72.05 113.32695 72.05 110.905075ZM73.12813 110.905075Q73.12813 113.01445 73.62813 113.717575Q74.12813 114.4207 74.84688 114.4207Q75.58125 114.4207 76.06563 113.717575Q76.56563 113.01445 76.56563 110.905075Q76.56563 108.780075 76.06563 108.092575Q75.58125 107.38945 74.83125 107.38945Q74.1125 107.38945 73.675 107.998825Q73.12813 108.780075 73.12813 110.905075ZM79.05 110.905075Q79.05 109.373825 79.3625 108.45195Q79.675 107.51445 80.28438 107.01445Q80.90938 106.51445 81.84688 106.51445Q82.53438 106.51445 83.05 106.7957Q83.58125 107.07695 83.925 107.6082Q84.26875 108.123825 84.45625 108.873825Q84.64375 109.623825 84.64375 110.905075Q84.64375 112.4207 84.33125 113.342575Q84.03438 114.26445 83.40938 114.780075Q82.8 115.280075 81.84688 115.280075Q80.6125 115.280075 79.89375 114.38945Q79.05 113.32695 79.05 110.905075ZM80.12813 110.905075Q80.12813 113.01445 80.62813 113.717575Q81.12813 114.4207 81.84688 114.4207Q82.58125 114.4207 83.06563 113.717575Q83.56563 113.01445 83.56563 110.905075Q83.56563 108.780075 83.06563 108.092575Q82.58125 107.38945 81.83125 107.38945Q81.1125 107.38945 80.675 107.998825Q80.12813 108.780075 80.12813 110.905075ZM86.05 110.905075Q86.05 109.373825 86.3625 108.45195Q86.675 107.51445 87.28438 107.01445Q87.90938 106.51445 88.84688 106.51445Q89.53438 106.51445 90.05 106.7957Q90.58125 107.07695 90.925 107.6082Q91.26875 108.123825 91.45625 108.873825Q91.64375 109.623825 91.64375 110.905075Q91.64375 112.4207 91.33125 113.342575Q91.03438 114.26445 90.40938 114.780075Q89.8 115.280075 88.84688 115.280075Q87.6125 115.280075 86.89375 114.38945Q86.05 113.32695 86.05 110.905075ZM87.12813 110.905075Q87.12813 113.01445 87.62813 113.717575Q88.12813 114.4207 88.84688 114.4207Q89.58125 114.4207 90.06563 113.717575Q90.56563 113.01445 90.56563 110.905075Q90.56563 108.780075 90.06563 108.092575Q89.58125 107.38945 88.83125 107.38945Q88.1125 107.38945 87.675 107.998825Q87.12813 108.780075 87.12813 110.905075ZM93.05 110.905075Q93.05 109.373825 93.3625 108.45195Q93.675 107.51445 94.28438 107.01445Q94.90938 106.51445 95.84688 106.51445Q96.53438 106.51445 97.05 106.7957Q97.58125 107.07695 97.925 107.6082Q98.26875 108.123825 98.45625 108.873825Q98.64375 109.623825 98.64375 110.905075Q98.64375 112.4207 98.33125 113.342575Q98.03438 114.26445 97.40938 114.780075Q96.8 115.280075 95.84688 115.280075Q94.6125 115.280075 93.89375 114.38945Q93.05 113.32695 93.05 110.905075ZM94.12813 110.905075Q94.12813 113.01445 94.62813 113.717575Q95.12813 114.4207 95.84688 114.4207Q96.58125 114.4207 97.06563 113.717575Q97.56563 113.01445 97.56563 110.905075Q97.56563 108.780075 97.06563 108.092575Q96.58125 107.38945 95.83125 107.38945Q95.1125 107.38945 94.675 107.998825Q94.12813 108.780075 94.12813 110.905075ZM100.05 110.905075Q100.05 109.373825 100.3625 108.45195Q100.675 107.51445 101.28438 107.01445Q101.90938 106.51445 102.84688 106.51445Q103.53438 106.51445 104.05 106.7957Q104.58125 107.07695 104.925 107.6082Q105.26875 108.123825 105.45625 108.873825Q105.64375 109.623825 105.64375 110.905075Q105.64375 112.4207 105.33125 113.342575Q105.03438 114.26445 104.40938 114.780075Q103.8 115.280075 102.84688 115.280075Q101.6125 115.280075 100.89375 114.38945Q100.05 113.32695 100.05 110.905075ZM101.12813 110.905075Q101.12813 113.01445 101.62813 113.717575Q102.12813 114.4207 102.84688 114.4207Q103.58125 114.4207 104.06563 113.717575Q104.56563 113.01445 104.56563 110.905075Q104.56563 108.780075 104.06563 108.092575Q103.58125 107.38945 102.83125 107.38945Q102.1125 107.38945 101.675 107.998825Q101.12813 108.780075 101.12813 110.905075ZM107.05 110.905075Q107.05 109.373825 107.3625 108.45195Q107.675 107.51445 108.28438 107.01445Q108.90938 106.51445 109.84688 106.51445Q110.53438 106.51445 111.05 106.7957Q111.58125 107.07695 111.925 107.6082Q112.26875 108.123825 112.45625 108.873825Q112.64375 109.623825 112.64375 110.905075Q112.64375 112.4207 112.33125 113.342575Q112.03438 114.26445 111.40938 114.780075Q110.8 115.280075 109.84688 115.280075Q108.6125 115.280075 107.89375 114.38945Q107.05 113.32695 107.05 110.905075ZM108.12813 110.905075Q108.12813 113.01445 108.62813 113.717575Q109.12813 114.4207 109.84688 114.4207Q110.58125 114.4207 111.06563 113.717575Q111.56563 113.01445 111.56563 110.905075Q111.56563 108.780075 111.06563 108.092575Q110.58125 107.38945 109.83125 107.38945Q109.1125 107.38945 108.675 107.998825Q108.12813 108.780075 108.12813 110.905075ZM114.05 110.905075Q114.05 109.373825 114.3625 108.45195Q114.675 107.51445 115.28438 107.01445Q115.90938 106.51445 116.84688 106.51445Q117.53438 106.51445 118.05 106.7957Q118.58125 107.07695 118.925 107.6082Q119.26875 108.123825 119.45625 108.873825Q119.64375 109.623825 119.64375 110.905075Q119.64375 112.4207 119.33125 113.342575Q119.03438 114.26445 118.40938 114.780075Q117.8 115.280075 116.84688 115.280075Q115.6125 115.280075 114.89375 114.38945Q114.05 113.32695 114.05 110.905075ZM115.12813 110.905075Q115.12813 113.01445 115.62813 113.717575Q116.12813 114.4207 116.84688 114.4207Q117.58125 114.4207 118.06563 113.717575Q118.56563 113.01445 118.56563 110.905075Q118.56563 108.780075 118.06563 108.092575Q117.58125 107.38945 116.83125 107.38945Q116.1125 107.38945 115.675 107.998825Q115.12813 108.780075 115.12813 110.905075Z" fill-rule="nonzero"/><path fill="#000000" d="M55.01875 48.784252L53.971874 48.784252L53.971874 42.065502Q53.58125 42.424877 52.95625 42.799877Q52.346874 43.159252 51.8625 43.331127L51.8625 42.315502Q52.7375 41.893627 53.39375 41.315502Q54.065624 40.721752 54.346874 40.159252L55.01875 40.159252L55.01875 48.784252ZM58.05 44.549877Q58.05 43.018627 58.3625 42.096752Q58.675 41.159252 59.284374 40.659252Q59.909374 40.159252 60.846874 40.159252Q61.534374 40.159252 62.05 40.440502Q62.58125 40.721752 62.925 41.253002Q63.26875 41.768627 63.45625 42.518627Q63.64375 43.268627 63.64375 44.549877Q63.64375 46.065502 63.33125 46.987377Q63.034374 47.909252 62.409374 48.424877Q61.8 48.924877 60.846874 48.924877Q59.6125 48.924877 58.89375 48.034252Q58.05 46.971752 58.05 44.549877ZM59.128124 44.549877Q59.128124 46.659252 59.628124 47.362377Q60.128124 48.065502 60.846874 48.065502Q61.58125 48.065502 62.065624 47.362377Q62.565624 46.659252 62.565624 44.549877Q62.565624 42.424877 62.065624 41.737377Q61.58125 41.034252 60.83125 41.034252Q60.1125 41.034252 59.675 41.643627Q59.128124 42.424877 59.128124 44.549877ZM65.05 44.549877Q65.05 43.018627 65.3625 42.096752Q65.675 41.159252 66.28438 40.659252Q66.90938 40.159252 67.84688 40.159252Q68.53438 40.159252 69.05 40.440502Q69.58125 40.721752 69.925 41.253002Q70.26875 41.768627 70.45625 42.518627Q70.64375 43.268627 70.64375 44.549877Q70.64375 46.065502 70.33125 46.987377Q70.03438 47.909252 69.40938 48.424877Q68.8 48.924877 67.84688 48.924877Q66.6125 48.924877 65.89375 48.034252Q65.05 46.971752 65.05 44.549877ZM66.12813 44.549877Q66.12813 46.659252 66.62813 47.362377Q67.12813 48.065502 67.84688 48.065502Q68.58125 48.065502 69.06563 47.362377Q69.56563 46.659252 69.56563 44.549877Q69.56563 42.424877 69.06563 41.737377Q68.58125 41.034252 67.83125 41.034252Q67.1125 41.034252 66.675 41.643627Q66.12813 42.424877 66.12813 44.549877ZM72.05 44.549877Q72.05 43.018627 72.3625 42.096752Q72.675 41.159252 73.28438 40.659252Q73.90938 40.159252 74.84688 40.159252Q75.53438 40.159252 76.05 40.440502Q76.58125 40.721752 76.925 41.253002Q77.26875 41.768627 77.45625 42.518627Q77.64375 43.268627 77.64375 44.549877Q77.64375 46.065502 77.33125 46.987377Q77.03438 47.909252 76.40938 48.424877Q75.8 48.924877 74.84688 48.924877Q73.6125 48.924877 72.89375 48.034252Q72.05 46.971752 72.05 44.549877ZM73.12813 44.549877Q73.12813 46.659252 73.62813 47.362377Q74.12813 48.065502 74.84688 48.065502Q75.58125 48.065502 76.06563 47.362377Q76.56563 46.659252 76.56563 44.549877Q76.56563 42.424877 76.06563 41.737377Q75.58125 41.034252 74.83125 41.034252Q74.1125 41.034252 73.675 41.643627Q73.12813 42.424877 73.12813 44.549877ZM79.05 44.549877Q79.05 43.018627 79.3625 42.096752Q79.675 41.159252 80.28438 40.659252Q80.90938 40.159252 81.84688 40.159252Q82.53438 40.159252 83.05 40.440502Q83.58125 40.721752 83.925 41.253002Q84.26875 41.768627 84.45625 42.518627Q84.64375 43.268627 84.64375 44.549877Q84.64375 46.065502 84.33125 46.987377Q84.03438 47.909252 83.40938 48.424877Q82.8 48.924877 81.84688 48.924877Q80.6125 48.924877 79.89375 48.034252Q79.05 46.971752 79.05 44.549877ZM80.12813 44.549877Q80.12813 46.659252 80.62813 47.362377Q81.12813 48.065502 81.84688 48.065502Q82.58125 48.065502 83.06563 47.362377Q83.56563 46.659252 83.56563 44.549877Q83.56563 42.424877 83.06563 41.737377Q82.58125 41.034252 81.83125 41.034252Q81.1125 41.034252 80.675 41.643627Q80.12813 42.424877 80.12813 44.549877ZM86.05 44.549877Q86.05 43.018627 86.3625 42.096752Q86.675 41.159252 87.28438 40.659252Q87.90938 40.159252 88.84688 40.159252Q89.53438 40.159252 90.05 40.440502Q90.58125 40.721752 90.925 41.253002Q91.26875 41.768627 91.45625 42.518627Q91.64375 43.268627 91.64375 44.549877Q91.64375 46.065502 91.33125 46.987377Q91.03438 47.909252 90.40938 48.424877Q89.8 48.924877 88.84688 48.924877Q87.6125 48.924877 86.89375 48.034252Q86.05 46.971752 86.05 44.549877ZM87.12813 44.549877Q87.12813 46.659252 87.62813 47.362377Q88.12813 48.065502 88.84688 48.065502Q89.58125 48.065502 90.06563 47.362377Q90.56563 46.659252 90.56563 44.549877Q90.56563 42.424877 90.06563 41.737377Q89.58125 41.034252 88.83125 41.034252Q88.1125 41.034252 87.675 41.643627Q87.12813 42.424877 87.12813 44.549877ZM93.05 44.549877Q93.05 43.018627 93.3625 42.096752Q93.675 41.159252 94.28438 40.659252Q94.90938 40.159252 95.84688 40.159252Q96.53438 40.159252 97.05 40.440502Q97.58125 40.721752 97.925 41.253002Q98.26875 41.768627 98.45625 42.518627Q98.64375 43.268627 98.64375 44.549877Q98.64375 46.065502 98.33125 46.987377Q98.03438 47.909252 97.40938 48.424877Q96.8 48.924877 95.84688 48.924877Q94.6125 48.924877 93.89375 48.034252Q93.05 46.971752 93.05 44.549877ZM94.12813 44.549877Q94.12813 46.659252 94.62813 47.362377Q95.12813 48.065502 95.84688 48.065502Q96.58125 48.065502 97.06563 47.362377Q97.56563 46.659252 97.56563 44.549877Q97.56563 42.424877 97.06563 41.737377Q96.58125 41.034252 95.83125 41.034252Q95.1125 41.034252 94.675 41.643627Q94.12813 42.424877 94.12813 44.549877ZM100.05 44.549877Q100.05 43.018627 100.3625 42.096752Q100.675 41.159252 101.28438 40.659252Q101.90938 40.159252 102.84688 40.159252Q103.53438 40.159252 104.05 40.440502Q104.58125 40.721752 104.925 41.253002Q105.26875 41.768627 105.45625 42.518627Q105.64375 43.268627 105.64375 44.549877Q105.64375 46.065502 105.33125 46.987377Q105.03438 47.909252 104.40938 48.424877Q103.8 48.924877 102.84688 48.924877Q101.6125 48.924877 100.89375 48.034252Q100.05 46.971752 100.05 44.549877ZM101.12813 44.549877Q101.12813 46.659252 101.62813 47.362377Q102.12813 48.065502 102.84688 48.065502Q103.58125 48.065502 104.06563 47.362377Q104.56563 46.659252 104.56563 44.549877Q104.56563 42.424877 104.06563 41.737377Q103.58125 41.034252 102.83125 41.034252Q102.1125 41.034252 101.675 41.643627Q101.12813 42.424877 101.12813 44.549877ZM107.05 44.549877Q107.05 43.018627 107.3625 42.096752Q107.675 41.159252 108.28438 40.659252Q108.90938 40.159252 109.84688 40.159252Q110.53438 40.159252 111.05 40.440502Q111.58125 40.721752 111.925 41.253002Q112.26875 41.768627 112.45625 42.518627Q112.64375 43.268627 112.64375 44.549877Q112.64375 46.065502 112.33125 46.987377Q112.03438 47.909252 111.40938 48.424877Q110.8 48.924877 109.84688 48.924877Q108.6125 48.924877 107.89375 48.034252Q107.05 46.971752 107.05 44.549877ZM108.12813 44.549877Q108.12813 46.659252 108.62813 47.362377Q109.12813 48.065502 109.84688 48.065502Q110.58125 48.065502 111.06563 47.362377Q111.56563 46.659252 111.56563 44.549877Q111.56563 42.424877 111.06563 41.737377Q110.58125 41.034252 109.83125 41.034252Q109.1125 41.034252 108.675 41.643627Q108.12813 42.424877 108.12813 44.549877ZM114.05 44.549877Q114.05 43.018627 114.3625 42.096752Q114.675 41.159252 115.28438 40.659252Q115.90938 40.159252 116.84688 40.159252Q117.53438 40.159252 118.05 40.440502Q118.58125 40.721752 118.925 41.253002Q119.26875 41.768627 119.45625 42.518627Q119.64375 43.268627 119.64375 44.549877Q119.64375 46.065502 119.33125 46.987377Q119.03438 47.909252 118.40938 48.424877Q117.8 48.924877 116.84688 48.924877Q115.6125 48.924877 114.89375 48.034252Q114.05 46.971752 114.05 44.549877ZM115.12813 44.549877Q115.12813 46.659252 115.62813 47.362377Q116.12813 48.065502 116.84688 48.065502Q117.58125 48.065502 118.06563 47.362377Q118.56563 46.659252 118.56563 44.549877Q118.56563 42.424877 118.06563 41.737377Q117.58125 41.034252 116.83125 41.034252Q116.1125 41.034252 115.675 41.643627Q115.12813 42.424877 115.12813 44.549877Z" fill-rule="nonzero"/><path fill="#000000" d="M191.21245 315.2L192.32182 315.10626Q192.44682 315.91876 192.88432 316.325Q193.33745 316.73126 193.97807 316.73126Q194.72807 316.73126 195.25932 316.15314Q195.79057 315.575 195.79057 314.6375Q195.79057 313.73126 195.27495 313.21564Q194.77495 312.6844 193.94682 312.6844Q193.44682 312.6844 193.02495 312.91876Q192.6187 313.15314 192.38432 313.5125L191.39995 313.3875L192.22807 308.98126L196.50932 308.98126L196.50932 309.98126L193.07182 309.98126L192.6187 312.29376Q193.38432 311.7469 194.22807 311.7469Q195.35307 311.7469 196.1187 312.52814Q196.89995 313.3094 196.89995 314.54376Q196.89995 315.7 196.22807 316.5594Q195.39995 317.59064 193.97807 317.59064Q192.8062 317.59064 192.0562 316.9344Q191.32182 316.27814 191.21245 315.2Z" fill-rule="nonzero"/><path fill="#000000" d="M267.7705 317.45L266.72363 317.45L266.72363 310.73126Q266.333 311.09064 265.708 311.46564Q265.09863 311.825 264.61426 311.9969L264.61426 310.98126Q265.48926 310.5594 266.1455 309.98126Q266.81738 309.3875 267.09863 308.825L267.7705 308.825L267.7705 317.45ZM270.80176 313.21564Q270.80176 311.6844 271.11426 310.7625Q271.42676 309.825 272.03613 309.325Q272.66113 308.825 273.59863 308.825Q274.28613 308.825 274.80176 309.10626Q275.333 309.3875 275.67676 309.91876Q276.0205 310.4344 276.208 311.1844Q276.3955 311.9344 276.3955 313.21564Q276.3955 314.73126 276.083 315.65314Q275.78613 316.575 275.16113 317.09064Q274.55176 317.59064 273.59863 317.59064Q272.36426 317.59064 271.6455 316.7Q270.80176 315.6375 270.80176 313.21564ZM271.87988 313.21564Q271.87988 315.325 272.37988 316.02814Q272.87988 316.73126 273.59863 316.73126Q274.333 316.73126 274.81738 316.02814Q275.31738 315.325 275.31738 313.21564Q275.31738 311.09064 274.81738 310.40314Q274.333 309.7 273.583 309.7Q272.86426 309.7 272.42676 310.3094Q271.87988 311.09064 271.87988 313.21564Z" fill-rule="nonzero"/><path fill="#000000" d="M343.85983 317.45L342.81296 317.45L342.81296 310.73126Q342.42233 311.09064 341.79733 311.46564Q341.18796 311.825 340.70358 311.9969L340.70358 310.98126Q341.57858 310.5594 342.23483 309.98126Q342.9067 309.3875 343.18796 308.825L343.85983 308.825L343.85983 317.45ZM346.89108 315.2L348.00046 315.10626Q348.12546 315.91876 348.56296 316.325Q349.01608 316.73126 349.6567 316.73126Q350.4067 316.73126 350.93796 316.15314Q351.4692 315.575 351.4692 314.6375Q351.4692 313.73126 350.95358 313.21564Q350.45358 312.6844 349.62546 312.6844Q349.12546 312.6844 348.70358 312.91876Q348.29733 313.15314 348.06296 313.5125L347.07858 313.3875L347.9067 308.98126L352.18796 308.98126L352.18796 309.98126L348.75046 309.98126L348.29733 312.29376Q349.06296 311.7469 349.9067 311.7469Q351.0317 311.7469 351.79733 312.52814Q352.57858 313.3094 352.57858 314.54376Q352.57858 315.7 351.9067 316.5594Q351.07858 317.59064 349.6567 317.59064Q348.48483 317.59064 347.73483 316.9344Q347.00046 316.27814 346.89108 315.2Z" fill-rule="nonzero"/><path fill="#000000" d="M421.52725 316.4344L421.52725 317.45L415.83975 317.45Q415.83975 317.075 415.96475 316.71564Q416.1835 316.1375 416.65225 315.575Q417.13663 315.0125 418.04288 314.27814Q419.44913 313.1219 419.9335 312.45Q420.4335 311.77814 420.4335 311.1844Q420.4335 310.5594 419.98038 310.1375Q419.52725 309.7 418.8085 309.7Q418.04288 309.7 417.58975 310.15314Q417.13663 310.60626 417.121 311.41876L416.04288 311.3094Q416.15225 310.09064 416.871 309.46564Q417.60538 308.825 418.83975 308.825Q420.07413 308.825 420.79288 309.5125Q421.51163 310.2 421.51163 311.21564Q421.51163 311.73126 421.29288 312.23126Q421.08975 312.71564 420.58975 313.27814Q420.10538 313.825 418.98038 314.77814Q418.02725 315.575 417.746 315.8719Q417.48038 316.15314 417.3085 316.4344L421.52725 316.4344ZM422.98038 313.21564Q422.98038 311.6844 423.29288 310.7625Q423.60538 309.825 424.21475 309.325Q424.83975 308.825 425.77725 308.825Q426.46475 308.825 426.98038 309.10626Q427.51163 309.3875 427.85538 309.91876Q428.19913 310.4344 428.38663 311.1844Q428.57413 311.9344 428.57413 313.21564Q428.57413 314.73126 428.26163 315.65314Q427.96475 316.575 427.33975 317.09064Q426.73038 317.59064 425.77725 317.59064Q424.54288 317.59064 423.82413 316.7Q422.98038 315.6375 422.98038 313.21564ZM424.0585 313.21564Q424.0585 315.325 424.5585 316.02814Q425.0585 316.73126 425.77725 316.73126Q426.51163 316.73126 426.996 316.02814Q427.496 315.325 427.496 313.21564Q427.496 311.09064 426.996 310.40314Q426.51163 309.7 425.76163 309.7Q425.04288 309.7 424.60538 310.3094Q424.0585 311.09064 424.0585 313.21564Z" fill-rule="nonzero"/><path fill="#000000" d="M497.61658 316.4344L497.61658 317.45L491.92908 317.45Q491.92908 317.075 492.05408 316.71564Q492.27283 316.1375 492.74158 315.575Q493.22595 315.0125 494.1322 314.27814Q495.53845 313.1219 496.02283 312.45Q496.52283 311.77814 496.52283 311.1844Q496.52283 310.5594 496.0697 310.1375Q495.61658 309.7 494.89783 309.7Q494.1322 309.7 493.67908 310.15314Q493.22595 310.60626 493.21033 311.41876L492.1322 311.3094Q492.24158 310.09064 492.96033 309.46564Q493.6947 308.825 494.92908 308.825Q496.16345 308.825 496.8822 309.5125Q497.60095 310.2 497.60095 311.21564Q497.60095 311.73126 497.3822 312.23126Q497.17908 312.71564 496.67908 313.27814Q496.1947 313.825 495.0697 314.77814Q494.11658 315.575 493.83533 315.8719Q493.5697 316.15314 493.39783 316.4344L497.61658 316.4344ZM499.0697 315.2L500.17908 315.10626Q500.30408 315.91876 500.74158 316.325Q501.1947 316.73126 501.83533 316.73126Q502.58533 316.73126 503.11658 316.15314Q503.64783 315.575 503.64783 314.6375Q503.64783 313.73126 503.1322 313.21564Q502.6322 312.6844 501.80408 312.6844Q501.30408 312.6844 500.8822 312.91876Q500.47595 313.15314 500.24158 313.5125L499.2572 313.3875L500.08533 308.98126L504.36658 308.98126L504.36658 309.98126L500.92908 309.98126L500.47595 312.29376Q501.24158 311.7469 502.08533 311.7469Q503.21033 311.7469 503.97595 312.52814Q504.7572 313.3094 504.7572 314.54376Q504.7572 315.7 504.08533 316.5594Q503.2572 317.59064 501.83533 317.59064Q500.66345 317.59064 499.91345 316.9344Q499.17908 316.27814 499.0697 315.2Z" fill-rule="nonzero"/><path fill="#000000" d="M568.159 315.1844L569.2215 315.04376Q569.3934 315.9344 569.8309 316.34064Q570.2684 316.73126 570.8934 316.73126Q571.6434 316.73126 572.159 316.21564Q572.6746 315.7 572.6746 314.9344Q572.6746 314.21564 572.19025 313.7469Q571.7215 313.2625 570.9871 313.2625Q570.69025 313.2625 570.2371 313.3875L570.3621 312.45Q570.4715 312.46564 570.534 312.46564Q571.2059 312.46564 571.7371 312.1219Q572.284 311.7625 572.284 311.02814Q572.284 310.45 571.8934 310.075Q571.50275 309.6844 570.87775 309.6844Q570.2684 309.6844 569.8465 310.075Q569.44025 310.46564 569.3309 311.23126L568.2684 311.04376Q568.4559 309.9969 569.1434 309.41876Q569.8309 308.825 570.8465 308.825Q571.5496 308.825 572.1434 309.1375Q572.7371 309.4344 573.0496 309.95Q573.3621 310.46564 573.3621 311.0594Q573.3621 311.60626 573.06525 312.075Q572.7684 312.52814 572.19025 312.79376Q572.94025 312.96564 573.3621 313.52814Q573.784 314.075 573.784 314.91876Q573.784 316.04376 572.9559 316.825Q572.1434 317.60626 570.8934 317.60626Q569.7684 317.60626 569.0184 316.9344Q568.2684 316.2469 568.159 315.1844ZM575.159 313.21564Q575.159 311.6844 575.4715 310.7625Q575.784 309.825 576.3934 309.325Q577.0184 308.825 577.9559 308.825Q578.6434 308.825 579.159 309.10626Q579.69025 309.3875 580.034 309.91876Q580.37775 310.4344 580.56525 311.1844Q580.75275 311.9344 580.75275 313.21564Q580.75275 314.73126 580.44025 315.65314Q580.1434 316.575 579.5184 317.09064Q578.909 317.59064 577.9559 317.59064Q576.7215 317.59064 576.00275 316.7Q575.159 315.6375 575.159 313.21564ZM576.2371 313.21564Q576.2371 315.325 576.7371 316.02814Q577.2371 316.73126 577.9559 316.73126Q578.69025 316.73126 579.1746 316.02814Q579.6746 315.325 579.6746 313.21564Q579.6746 311.09064 579.1746 310.40314Q578.69025 309.7 577.94025 309.7Q577.2215 309.7 576.784 310.3094Q576.2371 311.09064 576.2371 313.21564Z" fill-rule="nonzero"/></svg>