<svg version="1.1" viewBox="0.0 0.0 600.0 371.0" fill="none" stroke="none" stroke-linecap="square" stroke-miterlimit="10" width="600" height="371" xmlns:xlink="http://www.w3.org/1999/xlink" xmlns="http://www.w3.org/2000/svg"><path fill="#ffffff" d="M0 0L600.0 0L600.0 371.0L0 371.0L0 0Z" fill-rule="nonzero"/><path stroke="#cccccc" stroke-width="1.0" stroke-linecap="butt" d="M158.5 51.5L158.5 300.5" fill-rule="nonzero"/><path stroke="#cccccc" stroke-width="1.0" stroke-linecap="butt" d="M241.5 51.5L241.5 300.5" fill-rule="nonzero"/><path stroke="#cccccc" stroke-width="1.0" stroke-linecap="butt" d="M324.5 51.5L324.5 300.5" fill-rule="nonzero"/><path stroke="#cccccc" stroke-width="1.0" stroke-linecap="butt" d="M407.5 51.5L407.5 300.5" fill-rule="nonzero"/><path stroke="#cccccc" stroke-width="1.0" stroke-linecap="butt" d="M491.5 51.5L491.5 300.5" fill-rule="nonzero"/><path stroke="#cccccc" stroke-width="1.0" stroke-linecap="butt" d="M574.5 51.5L574.5 300.5" fill-rule="nonzero"/><path stroke="#333333" stroke-width="1.0" stroke-linecap="butt" d="M84.5 300.5L581.5 300.5" fill-rule="nonzero"/><path stroke="#cccccc" stroke-width="1.0" stroke-linecap="butt" d="M84.5 217.5L581.5 217.5" fill-rule="nonzero"/><path stroke="#cccccc" stroke-width="1.0" stroke-linecap="butt" d="M84.5 134.5L581.5 134.5" fill-rule="nonzero"/><path stroke="#cccccc" stroke-width="1.0" stroke-linecap="butt" d="M84.5 51.5L581.5 51.5" fill-rule="nonzero"/><clipPath id="id_0"><path d="M84.55 51.916668L581.45 51.916668L581.45 300.45L84.55 300.45L84.55 51.916668Z" clip-rule="nonzero"/></clipPath><path stroke="#4285f4" stroke-width="2.0" stroke-linecap="butt" clip-path="url(#id_0)" d="M91.358185 299.9102L158.01799 299.90903L241.34276 299.91266L324.6675 299.91068L407.99228 299.90952L441.3222 299.9082L474.6521 299.91415L507.982 299.91498L541.3119 299.91434L557.97687 299.91498L574.64185 299.91498" fill-rule="nonzero"/><path stroke="#ea4335" stroke-width="2.0" stroke-linecap="butt" clip-path="url(#id_0)" d="M91.358185 298.62244L158.01799 296.1951L241.34276 293.1597L324.6675 289.11853L407.99228 285.00613L441.3222 274.7848L474.6521 263.83276L507.982 255.38263L541.3119 245.10991L557.97687 238.89658L574.64185 234.80406" fill-rule="nonzero"/><path stroke="#fbbc04" stroke-width="2.0" stroke-linecap="butt" clip-path="url(#id_0)" d="M91.358185 298.69702L158.01799 296.03937L241.34276 292.73718L324.6675 285.8263L407.99228 275.6795L441.3222 243.0885L474.6521 206.42155L507.982 162.13292L541.3119 125.648224L557.97687 94.99578L574.64185 65.33746" fill-rule="nonzero"/><path fill="#4285f4" clip-path="url(#id_0)" d="M95.858185 299.9102C95.858185 302.39548 93.84346 304.4102 91.358185 304.4102C88.8729 304.4102 86.858185 302.39548 86.858185 299.9102C86.858185 297.4249 88.8729 295.4102 91.358185 295.4102C93.84346 295.4102 95.858185 297.4249 95.858185 299.9102Z" fill-rule="nonzero"/><path fill="#4285f4" clip-path="url(#id_0)" d="M162.51799 299.90903C162.51799 302.39432 160.50328 304.40903 158.01799 304.40903C155.53271 304.40903 153.51799 302.39432 153.51799 299.90903C153.51799 297.42374 155.53271 295.40903 158.01799 295.40903C160.50328 295.40903 162.51799 297.42374 162.51799 299.90903Z" fill-rule="nonzero"/><path fill="#4285f4" clip-path="url(#id_0)" d="M245.84276 299.91266C245.84276 302.39795 243.82803 304.41266 241.34276 304.41266C238.85748 304.41266 236.84276 302.39795 236.84276 299.91266C236.84276 297.4274 238.85748 295.41266 241.34276 295.41266C243.82803 295.41266 245.84276 297.4274 245.84276 299.91266Z" fill-rule="nonzero"/><path fill="#4285f4" clip-path="url(#id_0)" d="M329.1675 299.91068C329.1675 302.39597 327.1528 304.41068 324.6675 304.41068C322.18225 304.41068 320.1675 302.39597 320.1675 299.91068C320.1675 297.4254 322.18225 295.41068 324.6675 295.41068C327.1528 295.41068 329.1675 297.4254 329.1675 299.91068Z" fill-rule="nonzero"/><path fill="#4285f4" clip-path="url(#id_0)" d="M412.49228 299.90952C412.49228 302.3948 410.47757 304.40952 407.99228 304.40952C405.50702 304.40952 403.49228 302.3948 403.49228 299.90952C403.49228 297.42426 405.50702 295.40952 407.99228 295.40952C410.47757 295.40952 412.49228 297.42426 412.49228 299.90952Z" fill-rule="nonzero"/><path fill="#4285f4" clip-path="url(#id_0)" d="M445.8222 299.9082C445.8222 302.3935 443.80746 304.4082 441.3222 304.4082C438.8369 304.4082 436.8222 302.3935 436.8222 299.9082C436.8222 297.4229 438.8369 295.4082 441.3222 295.4082C443.80746 295.4082 445.8222 297.4229 445.8222 299.9082Z" fill-rule="nonzero"/><path fill="#4285f4" clip-path="url(#id_0)" d="M479.1521 299.91415C479.1521 302.39944 477.1374 304.41415 474.6521 304.41415C472.1668 304.41415 470.1521 302.39944 470.1521 299.91415C470.1521 297.4289 472.1668 295.41415 474.6521 295.41415C477.1374 295.41415 479.1521 297.4289 479.1521 299.91415Z" fill-rule="nonzero"/><path fill="#4285f4" clip-path="url(#id_0)" d="M512.482 299.91498C512.482 302.40027 510.4673 304.41498 507.982 304.41498C505.49673 304.41498 503.482 302.40027 503.482 299.91498C503.482 297.42972 505.49673 295.41498 507.982 295.41498C510.4673 295.41498 512.482 297.42972 512.482 299.91498Z" fill-rule="nonzero"/><path fill="#4285f4" clip-path="url(#id_0)" d="M545.8119 299.91434C545.8119 302.3996 543.7972 304.41434 541.3119 304.41434C538.82666 304.41434 536.8119 302.3996 536.8119 299.91434C536.8119 297.42905 538.82666 295.41434 541.3119 295.41434C543.7972 295.41434 545.8119 297.42905 545.8119 299.91434Z" fill-rule="nonzero"/><path fill="#4285f4" clip-path="url(#id_0)" d="M562.47687 299.91498C562.47687 302.40027 560.46216 304.41498 557.97687 304.41498C555.4916 304.41498 553.47687 302.40027 553.47687 299.91498C553.47687 297.42972 555.4916 295.41498 557.97687 295.41498C560.46216 295.41498 562.47687 297.42972 562.47687 299.91498Z" fill-rule="nonzero"/><path fill="#4285f4" clip-path="url(#id_0)" d="M579.14185 299.91498C579.14185 302.40027 577.1271 304.41498 574.64185 304.41498C572.15656 304.41498 570.14185 302.40027 570.14185 299.91498C570.14185 297.42972 572.15656 295.41498 574.64185 295.41498C577.1271 295.41498 579.14185 297.42972 579.14185 299.91498Z" fill-rule="nonzero"/><path fill="#ea4335" clip-path="url(#id_0)" d="M95.858185 298.62244C95.858185 301.10773 93.84346 303.12244 91.358185 303.12244C88.8729 303.12244 86.858185 301.10773 86.858185 298.62244C86.858185 296.13718 88.8729 294.12244 91.358185 294.12244C93.84346 294.12244 95.858185 296.13718 95.858185 298.62244Z" fill-rule="nonzero"/><path fill="#ea4335" clip-path="url(#id_0)" d="M162.51799 296.1951C162.51799 298.6804 160.50328 300.6951 158.01799 300.6951C155.53271 300.6951 153.51799 298.6804 153.51799 296.1951C153.51799 293.70984 155.53271 291.6951 158.01799 291.6951C160.50328 291.6951 162.51799 293.70984 162.51799 296.1951Z" fill-rule="nonzero"/><path fill="#ea4335" clip-path="url(#id_0)" d="M245.84276 293.1597C245.84276 295.64496 243.82803 297.6597 241.34276 297.6597C238.85748 297.6597 236.84276 295.64496 236.84276 293.1597C236.84276 290.6744 238.85748 288.6597 241.34276 288.6597C243.82803 288.6597 245.84276 290.6744 245.84276 293.1597Z" fill-rule="nonzero"/><path fill="#ea4335" clip-path="url(#id_0)" d="M329.1675 289.11853C329.1675 291.60382 327.1528 293.61853 324.6675 293.61853C322.18225 293.61853 320.1675 291.60382 320.1675 289.11853C320.1675 286.63327 322.18225 284.61853 324.6675 284.61853C327.1528 284.61853 329.1675 286.63327 329.1675 289.11853Z" fill-rule="nonzero"/><path fill="#ea4335" clip-path="url(#id_0)" d="M412.49228 285.00613C412.49228 287.49142 410.47757 289.50613 407.99228 289.50613C405.50702 289.50613 403.49228 287.49142 403.49228 285.00613C403.49228 282.52084 405.50702 280.50613 407.99228 280.50613C410.47757 280.50613 412.49228 282.52084 412.49228 285.00613Z" fill-rule="nonzero"/><path fill="#ea4335" clip-path="url(#id_0)" d="M445.8222 274.7848C445.8222 277.27008 443.80746 279.2848 441.3222 279.2848C438.8369 279.2848 436.8222 277.27008 436.8222 274.7848C436.8222 272.2995 438.8369 270.2848 441.3222 270.2848C443.80746 270.2848 445.8222 272.2995 445.8222 274.7848Z" fill-rule="nonzero"/><path fill="#ea4335" clip-path="url(#id_0)" d="M479.1521 263.83276C479.1521 266.31802 477.1374 268.33276 474.6521 268.33276C472.1668 268.33276 470.1521 266.31802 470.1521 263.83276C470.1521 261.34747 472.1668 259.33276 474.6521 259.33276C477.1374 259.33276 479.1521 261.34747 479.1521 263.83276Z" fill-rule="nonzero"/><path fill="#ea4335" clip-path="url(#id_0)" d="M512.482 255.38263C512.482 257.8679 510.4673 259.88263 507.982 259.88263C505.49673 259.88263 503.482 257.8679 503.482 255.38263C503.482 252.89734 505.49673 250.88263 507.982 250.88263C510.4673 250.88263 512.482 252.89734 512.482 255.38263Z" fill-rule="nonzero"/><path fill="#ea4335" clip-path="url(#id_0)" d="M545.8119 245.10991C545.8119 247.5952 543.7972 249.60991 541.3119 249.60991C538.82666 249.60991 536.8119 247.5952 536.8119 245.10991C536.8119 242.62463 538.82666 240.60991 541.3119 240.60991C543.7972 240.60991 545.8119 242.62463 545.8119 245.10991Z" fill-rule="nonzero"/><path fill="#ea4335" clip-path="url(#id_0)" d="M562.47687 238.89658C562.47687 241.38187 560.46216 243.39658 557.97687 243.39658C555.4916 243.39658 553.47687 241.38187 553.47687 238.89658C553.47687 236.4113 555.4916 234.39658 557.97687 234.39658C560.46216 234.39658 562.47687 236.4113 562.47687 238.89658Z" fill-rule="nonzero"/><path fill="#ea4335" clip-path="url(#id_0)" d="M579.14185 234.80406C579.14185 237.28934 577.1271 239.30406 574.64185 239.30406C572.15656 239.30406 570.14185 237.28934 570.14185 234.80406C570.14185 232.31879 572.15656 230.30406 574.64185 230.30406C577.1271 230.30406 579.14185 232.31879 579.14185 234.80406Z" fill-rule="nonzero"/><path fill="#fbbc04" clip-path="url(#id_0)" d="M95.858185 298.69702C95.858185 301.18228 93.84346 303.19702 91.358185 303.19702C88.8729 303.19702 86.858185 301.18228 86.858185 298.69702C86.858185 296.21173 88.8729 294.19702 91.358185 294.19702C93.84346 294.19702 95.858185 296.21173 95.858185 298.69702Z" fill-rule="nonzero"/><path fill="#fbbc04" clip-path="url(#id_0)" d="M162.51799 296.03937C162.51799 298.52466 160.50328 300.53937 158.01799 300.53937C155.53271 300.53937 153.51799 298.52466 153.51799 296.03937C153.51799 293.55408 155.53271 291.53937 158.01799 291.53937C160.50328 291.53937 162.51799 293.55408 162.51799 296.03937Z" fill-rule="nonzero"/><path fill="#fbbc04" clip-path="url(#id_0)" d="M245.84276 292.73718C245.84276 295.22247 243.82803 297.23718 241.34276 297.23718C238.85748 297.23718 236.84276 295.22247 236.84276 292.73718C236.84276 290.2519 238.85748 288.23718 241.34276 288.23718C243.82803 288.23718 245.84276 290.2519 245.84276 292.73718Z" fill-rule="nonzero"/><path fill="#fbbc04" clip-path="url(#id_0)" d="M329.1675 285.8263C329.1675 288.31158 327.1528 290.3263 324.6675 290.3263C322.18225 290.3263 320.1675 288.31158 320.1675 285.8263C320.1675 283.341 322.18225 281.3263 324.6675 281.3263C327.1528 281.3263 329.1675 283.341 329.1675 285.8263Z" fill-rule="nonzero"/><path fill="#fbbc04" clip-path="url(#id_0)" d="M412.49228 275.6795C412.49228 278.1648 410.47757 280.1795 407.99228 280.1795C405.50702 280.1795 403.49228 278.1648 403.49228 275.6795C403.49228 273.19424 405.50702 271.1795 407.99228 271.1795C410.47757 271.1795 412.49228 273.19424 412.49228 275.6795Z" fill-rule="nonzero"/><path fill="#fbbc04" clip-path="url(#id_0)" d="M445.8222 243.0885C445.8222 245.57379 443.80746 247.5885 441.3222 247.5885C438.8369 247.5885 436.8222 245.57379 436.8222 243.0885C436.8222 240.60323 438.8369 238.5885 441.3222 238.5885C443.80746 238.5885 445.8222 240.60323 445.8222 243.0885Z" fill-rule="nonzero"/><path fill="#fbbc04" clip-path="url(#id_0)" d="M479.1521 206.42155C479.1521 208.90683 477.1374 210.92155 474.6521 210.92155C472.1668 210.92155 470.1521 208.90683 470.1521 206.42155C470.1521 203.93628 472.1668 201.92155 474.6521 201.92155C477.1374 201.92155 479.1521 203.93628 479.1521 206.42155Z" fill-rule="nonzero"/><path fill="#fbbc04" clip-path="url(#id_0)" d="M512.482 162.13292C512.482 164.6182 510.4673 166.63292 507.982 166.63292C505.49673 166.63292 503.482 164.6182 503.482 162.13292C503.482 159.64763 505.49673 157.63292 507.982 157.63292C510.4673 157.63292 512.482 159.64763 512.482 162.13292Z" fill-rule="nonzero"/><path fill="#fbbc04" clip-path="url(#id_0)" d="M545.8119 125.648224C545.8119 128.1335 543.7972 130.14822 541.3119 130.14822C538.82666 130.14822 536.8119 128.1335 536.8119 125.648224C536.8119 123.16294 538.82666 121.148224 541.3119 121.148224C543.7972 121.148224 545.8119 123.16294 545.8119 125.648224Z" fill-rule="nonzero"/><path fill="#fbbc04" clip-path="url(#id_0)" d="M562.47687 94.99578C562.47687 97.48106 560.46216 99.49578 557.97687 99.49578C555.4916 99.49578 553.47687 97.48106 553.47687 94.99578C553.47687 92.5105 555.4916 90.49578 557.97687 90.49578C560.46216 90.49578 562.47687 92.5105 562.47687 94.99578Z" fill-rule="nonzero"/><path fill="#fbbc04" clip-path="url(#id_0)" d="M579.14185 65.33746C579.14185 67.82275 577.1271 69.83746 574.64185 69.83746C572.15656 69.83746 570.14185 67.82275 570.14185 65.33746C570.14185 62.852184 572.15656 60.837467 574.64185 60.837467C577.1271 60.837467 579.14185 62.852184 579.14185 65.33746Z" fill-rule="nonzero"/><path fill="#000000" d="M297.34375 349.02814Q295.75 350.2 291.85938 350.52814L291.67188 349.6375Q294.90625 349.45 296.35938 348.7Q295.28125 348.41876 294.25 348.23126L293.96875 348.5594L293.125 348.09064L294.39062 346.6844L291.15625 346.6844L291.15625 345.9344L295.0 345.9344L295.75 344.90314L293.26562 344.90314L293.26562 345.23126L292.46875 345.23126L292.46875 342.09064L294.90625 342.09064L294.90625 341.0594L291.4375 341.0594L291.4375 340.3094L301.51562 340.3094L301.51562 341.0594L298.04688 341.0594L298.04688 342.09064L300.48438 342.09064L300.48438 345.1844L299.6875 345.1844L299.6875 344.90314L296.17188 344.90314L296.64062 345.1375Q296.875 345.27814 296.5 345.3719L296.03125 345.9344L301.84375 345.9344L301.84375 346.6844L299.45312 346.6844Q298.89062 347.6219 298.09375 348.3719Q299.59375 348.79376 301.32812 349.59064L300.71875 350.4344Q299.3125 349.6844 297.34375 349.02814ZM295.5625 346.6844L294.76562 347.575Q295.84375 347.71564 297.15625 348.04376Q297.90625 347.48126 298.32812 346.6844L295.5625 346.6844ZM295.70312 341.0594L295.70312 342.09064L297.25 342.09064L297.25 341.0594L295.70312 341.0594ZM293.26562 344.15314L294.90625 344.15314L294.90625 342.84064L293.26562 342.84064L293.26562 344.15314ZM295.70312 342.84064L295.70312 344.15314L297.25 344.15314L297.25 342.84064L295.70312 342.84064ZM298.04688 342.84064L298.04688 344.15314L299.6875 344.15314L299.6875 342.84064L298.04688 342.84064ZM307.9375 346.16876Q308.82812 345.5125 309.57812 344.66876L310.42188 345.1844Q310.60938 345.41876 310.23438 345.3719Q309.53125 345.98126 308.45312 346.73126L311.40625 346.59064L310.70312 345.98126L311.35938 345.46564Q312.57812 346.3094 313.46875 347.3875L312.71875 347.9969L312.01562 347.2469L308.875 347.48126L308.875 350.4344L307.9375 350.4344L307.9375 347.52814L304.04688 347.66876Q304.0 347.9969 303.8125 347.8094L303.53125 346.77814L307.23438 346.77814Q306.34375 345.9344 305.40625 345.5125L305.92188 344.90314L306.67188 345.27814Q307.09375 344.95 307.51562 344.4344L303.10938 344.4344L303.10938 343.6844L307.9375 343.6844L307.9375 342.98126L304.60938 342.98126L304.60938 342.23126L307.9375 342.23126L307.9375 341.48126L304.0 341.48126L304.0 340.73126L307.9375 340.73126L307.9375 339.7469L308.82812 339.7469Q309.20312 339.79376 308.875 340.02814L308.875 340.73126L312.90625 340.73126L312.90625 341.48126L308.875 341.48126L308.875 342.23126L312.25 342.23126L312.25 342.98126L308.875 342.98126L308.875 343.6844L313.75 343.6844L313.75 344.4344L308.54688 344.4344Q307.9375 345.1375 307.32812 345.7L307.9375 346.16876ZM310.84375 347.85626Q312.01562 348.8875 313.375 349.21564L313.0 350.10626Q311.3125 349.6844 310.23438 348.46564L310.84375 347.85626ZM306.90625 348.7Q307.0 348.9344 306.625 348.8875Q305.3125 349.91876 303.85938 350.2469L303.4375 349.40314Q305.07812 348.98126 306.20312 347.9969L306.90625 348.7ZM323.21875 346.8719Q323.875 345.60626 324.01562 343.02814L322.42188 343.02814Q322.5625 345.60626 323.21875 346.8719ZM324.95312 343.02814Q324.85938 345.9344 323.82812 347.71564Q324.57812 348.65314 325.9375 349.35626L325.32812 350.3875Q323.82812 349.40314 323.21875 348.5125Q322.14062 349.73126 319.89062 350.6219L319.42188 349.6844Q321.85938 348.7 322.65625 347.66876Q321.85938 346.1219 321.76562 344.575Q321.48438 345.27814 321.20312 345.65314L320.40625 345.04376Q321.8125 342.98126 322.09375 339.9344L323.07812 340.16876Q323.35938 340.35626 322.9375 340.45Q322.79688 341.29376 322.5625 342.1375L325.75 342.1375L325.75 343.02814L324.95312 343.02814ZM320.59375 340.77814Q320.3125 341.48126 319.9375 341.95L319.1875 341.52814Q319.5625 340.91876 319.89062 340.1219L320.73438 340.54376Q320.92188 340.73126 320.59375 340.77814ZM317.59375 347.3875Q318.25 347.575 318.76562 347.8094Q319.14062 347.3875 319.375 346.54376L318.01562 346.54376Q317.82812 346.96564 317.59375 347.3875ZM316.9375 348.5594L316.1875 348.1375Q316.65625 347.4344 317.125 346.54376L315.34375 346.54376L315.34375 345.79376L317.40625 345.79376Q317.6875 345.1844 317.82812 344.7625L318.71875 344.9969Q318.90625 345.1844 318.57812 345.23126L318.29688 345.79376L320.96875 345.79376L320.96875 346.54376L320.26562 346.54376Q320.03125 347.48126 319.5625 348.1375Q319.98438 348.325 320.45312 348.60626L320.03125 349.35626Q319.51562 349.02814 319.09375 348.84064Q317.875 350.0594 315.8125 350.34064L315.48438 349.4969Q317.3125 349.3094 318.29688 348.46564Q317.78125 348.23126 317.26562 348.04376L316.9375 348.5594ZM317.875 339.7469L318.625 339.7469Q319.0 339.79376 318.67188 340.02814L318.67188 342.04376L321.0625 342.04376L321.0625 342.79376L319.09375 342.79376Q319.60938 343.40314 320.6875 343.96564L320.17188 344.7625Q319.375 344.29376 318.67188 343.45L318.67188 344.575L317.875 344.575L317.875 343.6844Q317.125 344.6219 315.8125 345.3719L315.20312 344.6219Q316.65625 343.8719 317.59375 342.79376L315.4375 342.79376L315.4375 342.04376L317.875 342.04376L317.875 339.7469ZM316.5625 341.90314Q316.23438 341.2 315.71875 340.6844L316.46875 340.21564Q317.03125 340.77814 317.3125 341.3875L316.5625 341.90314Z" fill-rule="nonzero"/><path fill="#000000" d="M329.3125 351.98126Q328.4375 350.8719 327.82812 349.40314Q327.23438 347.91876 327.23438 346.34064Q327.23438 344.95 327.67188 343.66876Q328.20312 342.1844 329.3125 340.71564L330.0625 340.71564Q329.35938 341.9344 329.125 342.45Q328.76562 343.2625 328.5625 344.1375Q328.3125 345.23126 328.3125 346.34064Q328.3125 349.16876 330.0625 351.98126L329.3125 351.98126ZM331.26562 349.45L331.26562 340.85626L332.32812 340.85626L332.32812 349.45L331.26562 349.45ZM333.90625 346.34064Q333.90625 344.60626 334.85938 343.77814Q335.65625 343.09064 336.8125 343.09064Q338.09375 343.09064 338.90625 343.9344Q339.73438 344.7625 339.73438 346.2469Q339.73438 347.45 339.375 348.1375Q339.01562 348.825 338.3125 349.21564Q337.625 349.59064 336.8125 349.59064Q335.51562 349.59064 334.70312 348.7625Q333.90625 347.91876 333.90625 346.34064ZM334.98438 346.34064Q334.98438 347.52814 335.5 348.1219Q336.03125 348.71564 336.8125 348.71564Q337.60938 348.71564 338.125 348.1219Q338.64062 347.52814 338.64062 346.3094Q338.64062 345.15314 338.10938 344.5594Q337.59375 343.96564 336.8125 343.96564Q336.03125 343.96564 335.5 344.5594Q334.98438 345.1375 334.98438 346.34064ZM341.09375 349.96564L342.125 350.1219Q342.1875 350.59064 342.48438 350.8094Q342.875 351.10626 343.54688 351.10626Q344.28125 351.10626 344.67188 350.8094Q345.07812 350.5125 345.21875 349.9969Q345.3125 349.66876 345.29688 348.6375Q344.60938 349.45 343.57812 349.45Q342.29688 349.45 341.59375 348.52814Q340.89062 347.59064 340.89062 346.3094Q340.89062 345.41876 341.20312 344.66876Q341.53125 343.90314 342.14062 343.4969Q342.75 343.09064 343.57812 343.09064Q344.6875 343.09064 345.40625 343.98126L345.40625 343.23126L346.375 343.23126L346.375 348.60626Q346.375 350.0594 346.07812 350.66876Q345.78125 351.27814 345.14062 351.6219Q344.5 351.98126 343.5625 351.98126Q342.45312 351.98126 341.76562 351.48126Q341.07812 350.98126 341.09375 349.96564ZM341.96875 346.23126Q341.96875 347.45 342.45312 348.0125Q342.9375 348.575 343.67188 348.575Q344.40625 348.575 344.89062 348.0125Q345.39062 347.45 345.39062 346.2625Q345.39062 345.1219 344.875 344.54376Q344.375 343.96564 343.65625 343.96564Q342.95312 343.96564 342.45312 344.54376Q341.96875 345.10626 341.96875 346.23126ZM347.3125 351.84064L347.3125 351.075L354.3125 351.075L354.3125 351.84064L347.3125 351.84064ZM360.54688 348.4344L360.54688 349.45L354.85938 349.45Q354.85938 349.075 354.98438 348.71564Q355.20312 348.1375 355.67188 347.575Q356.15625 347.0125 357.0625 346.27814Q358.46875 345.1219 358.95312 344.45Q359.45312 343.77814 359.45312 343.1844Q359.45312 342.5594 359.0 342.1375Q358.54688 341.7 357.82812 341.7Q357.0625 341.7 356.60938 342.15314Q356.15625 342.60626 356.14062 343.41876L355.0625 343.3094Q355.17188 342.09064 355.89062 341.46564Q356.625 340.825 357.85938 340.825Q359.09375 340.825 359.8125 341.5125Q360.53125 342.2 360.53125 343.21564Q360.53125 343.73126 360.3125 344.23126Q360.10938 344.71564 359.60938 345.27814Q359.125 345.825 358.0 346.77814Q357.04688 347.575 356.76562 347.8719Q356.5 348.15314 356.32812 348.4344L360.54688 348.4344ZM365.29688 349.45L365.29688 343.23126L366.23438 343.23126L366.23438 344.10626Q366.92188 343.09064 368.21875 343.09064Q368.78125 343.09064 369.25 343.29376Q369.73438 343.4969 369.96875 343.825Q370.20312 344.15314 370.29688 344.59064Q370.34375 344.8875 370.34375 345.6219L370.34375 349.45L369.29688 349.45L369.29688 345.66876Q369.29688 345.0125 369.17188 344.7Q369.04688 344.3875 368.73438 344.2Q368.42188 343.9969 368.0 343.9969Q367.32812 343.9969 366.82812 344.4344Q366.34375 344.85626 366.34375 346.04376L366.34375 349.45L365.29688 349.45ZM372.98438 351.98126L372.23438 351.98126Q373.98438 349.16876 373.98438 346.34064Q373.98438 345.2469 373.73438 344.15314Q373.53125 343.27814 373.17188 342.46564Q372.9375 341.95 372.23438 340.71564L372.98438 340.71564Q374.07812 342.1844 374.60938 343.66876Q375.0625 344.95 375.0625 346.34064Q375.0625 347.91876 374.45312 349.40314Q373.84375 350.8719 372.98438 351.98126Z" fill-rule="nonzero"/><path fill="#000000" d="M26.081263 225.62083Q24.018763 224.12083 19.940638 223.65208L20.128138 222.62083Q20.315638 222.43333 20.362513 222.76146L21.159388 222.90208L21.159388 220.69896L22.050013 220.69896Q25.003138 220.83958 27.206263 221.87083Q28.987513 220.88646 28.987513 218.82396L28.987513 214.88646L30.018763 215.07396L30.018763 218.82396Q30.018763 221.07396 28.096888 222.29271Q29.784388 223.46458 30.534388 224.49583L29.643763 225.10521Q28.800013 223.83958 27.112513 222.85521Q25.893763 223.41771 24.534388 223.74583Q25.893763 224.30833 26.831263 224.91771L26.081263 225.62083ZM22.893763 223.23021Q24.862513 222.99583 26.175013 222.43333Q24.487513 221.73021 22.050013 221.63646L22.050013 223.08958L22.893763 223.23021ZM26.925013 216.05833Q26.925013 215.82396 25.612513 215.77708L25.846888 214.88646Q27.815638 214.88646 27.815638 215.77708L27.815638 216.57396Q27.815638 217.37083 26.971888 217.37083L21.721888 217.37083L21.721888 218.91771L25.425013 218.91771Q26.971888 218.91771 28.378138 220.04271L27.581263 220.79271Q26.784388 219.85521 25.003138 219.85521L20.831263 219.85521L20.831263 216.43333L26.737513 216.43333Q26.925013 216.43333 26.925013 216.29271L26.925013 216.05833ZM27.721888 209.54271Q28.378138 211.37083 28.800013 212.96458Q29.175013 213.10521 28.940638 213.24583L27.862513 213.57396L27.534388 211.93333L24.956263 211.93333L24.956263 213.19896L24.065638 213.19896L24.065638 211.93333L21.581263 211.93333L21.581263 213.33958L20.690638 213.33958L20.690638 209.58958L21.581263 209.58958L21.581263 210.99583L24.065638 210.99583L24.065638 209.73021L24.956263 209.73021L24.956263 210.99583L27.300013 210.99583Q27.253138 210.62083 26.925013 209.63646L27.721888 209.54271ZM25.518763 205.83958L26.878138 205.83958L26.878138 203.21458L27.768763 203.21458L27.768763 205.83958L29.221888 205.83958L29.221888 202.74583L30.112513 202.74583L30.112513 210.19896L29.221888 210.19896L29.221888 206.63646L27.768763 206.63646L27.768763 209.16771L26.878138 209.16771L26.878138 206.63646L25.518763 206.63646L25.518763 208.32396L26.128138 208.32396L26.128138 209.12083L20.362513 209.12083L20.362513 203.30833L25.940638 203.30833L25.940638 204.10521L25.518763 204.10521L25.518763 205.83958ZM23.362513 204.10521L23.362513 205.83958L24.768763 205.83958L24.768763 204.10521L23.362513 204.10521ZM21.112513 204.10521L21.112513 205.83958L22.612513 205.83958L22.612513 204.10521L21.112513 204.10521ZM22.612513 206.63646L21.112513 206.63646L21.112513 208.32396L22.612513 208.32396L22.612513 206.63646ZM23.362513 206.63646L23.362513 208.32396L24.768763 208.32396L24.768763 206.63646L23.362513 206.63646ZM28.987513 195.48021Q28.003138 196.04271 27.581263 196.41771L27.018763 195.62083Q27.440638 195.24583 28.378138 194.63646L28.987513 195.48021ZM29.643763 193.65208Q29.643763 193.46458 29.456263 193.46458L26.690638 193.46458L26.690638 197.40208L25.800013 197.40208L25.800013 193.46458L24.581263 193.46458L24.581263 197.91771L29.034388 197.91771L29.034388 198.71458L28.659388 198.71458L28.659388 200.30833L29.503138 200.30833L29.503138 201.10521L20.878138 201.10521L20.878138 197.91771L23.690638 197.91771L23.690638 195.05833L22.331263 195.05833L22.331263 197.07396L21.440638 197.07396L21.440638 195.05833L19.846888 195.05833L19.846888 194.16771Q19.893763 193.79271 20.128138 194.12083L21.440638 194.12083L21.440638 191.73021L22.331263 191.73021L22.331263 194.12083L23.690638 194.12083L23.690638 190.83958L24.581263 190.83958L24.581263 192.52708L25.800013 192.52708L25.800013 191.12083L26.690638 191.12083L26.690638 192.52708L29.784388 192.52708Q30.534388 192.52708 30.534388 193.27708L30.534388 194.26146L29.643763 194.44896L29.643763 193.65208ZM24.159388 200.30833L24.159388 198.71458L21.768763 198.71458L21.768763 200.30833L24.159388 200.30833ZM27.768763 200.30833L27.768763 198.71458L25.050013 198.71458L25.050013 200.30833L27.768763 200.30833ZM29.596888 180.48021Q29.596888 180.29271 29.409388 180.29271L24.018763 180.29271L24.018763 181.98021L24.018763 183.66771L20.268763 183.66771L20.268763 179.35521L29.737513 179.35521Q30.487513 179.35521 30.487513 180.10521L30.487513 181.04271L29.596888 181.13646L29.596888 180.48021ZM27.346888 182.96458L27.346888 185.44896L28.284388 185.44896L28.284388 182.96458L27.346888 182.96458ZM25.565638 182.96458L25.565638 185.44896L26.596888 185.44896L26.596888 182.96458L25.565638 182.96458ZM24.815638 182.02708L29.409388 182.02708L29.409388 182.96458L29.034388 182.96458L29.034388 185.44896L29.784388 185.44896L29.784388 186.38646L24.815638 186.38646L24.815638 182.02708ZM21.768763 180.29271L21.018763 180.29271L21.018763 182.73021L21.768763 182.73021L21.768763 180.29271ZM22.518763 180.29271L22.518763 182.73021L23.268763 182.73021L23.268763 180.29271L22.518763 180.29271ZM22.518763 185.82396L22.518763 188.21458L23.268763 188.21458L23.268763 185.82396L22.518763 185.82396ZM21.768763 185.82396L21.018763 185.82396L21.018763 188.21458L21.768763 188.21458L21.768763 185.82396ZM24.018763 184.88646L24.018763 188.21458L30.534388 188.21458L30.534388 189.15208L20.268763 189.15208L20.268763 184.88646L24.018763 184.88646Z" fill-rule="nonzero"/><path fill="#000000" d="M32.08126 175.37083Q30.971888 176.24583 29.503138 176.85521Q28.018763 177.44896 26.440638 177.44896Q25.050013 177.44896 23.768763 177.01146Q22.284388 176.48021 20.815638 175.37083L20.815638 174.62083Q22.034388 175.32396 22.550013 175.55833Q23.362513 175.91771 24.237513 176.12083Q25.331263 176.37083 26.440638 176.37083Q29.268763 176.37083 32.08126 174.62083L32.08126 175.37083ZM29.550013 173.38646L23.331263 173.38646L23.331263 172.44896L24.206263 172.44896Q23.190638 171.76146 23.190638 170.46458Q23.190638 169.90208 23.393763 169.43333Q23.596888 168.94896 23.925013 168.71458Q24.253138 168.48021 24.690638 168.38646Q24.987513 168.33958 25.721888 168.33958L29.550013 168.33958L29.550013 169.38646L25.768763 169.38646Q25.112513 169.38646 24.800013 169.51146Q24.487513 169.63646 24.300013 169.94896Q24.096888 170.26146 24.096888 170.68333Q24.096888 171.35521 24.534388 171.85521Q24.956263 172.33958 26.143763 172.33958L29.550013 172.33958L29.550013 173.38646ZM27.690638 166.80833L27.534388 165.77708Q28.159388 165.68333 28.487513 165.29271Q28.815638 164.88646 28.815638 164.15208Q28.815638 163.43333 28.534388 163.08958Q28.237513 162.73021 27.831263 162.73021Q27.471888 162.73021 27.268763 163.04271Q27.128138 163.26146 26.909388 164.12083Q26.612513 165.27708 26.409388 165.73021Q26.190638 166.16771 25.815638 166.40208Q25.440638 166.63646 24.971888 166.63646Q24.565638 166.63646 24.206263 166.44896Q23.846888 166.26146 23.612513 165.93333Q23.440638 165.68333 23.315638 165.26146Q23.190638 164.83958 23.190638 164.33958Q23.190638 163.62083 23.409388 163.07396Q23.612513 162.51146 23.971888 162.24583Q24.331263 161.98021 24.925013 161.88646L25.065638 162.91771Q24.596888 162.98021 24.331263 163.32396Q24.050013 163.65208 24.050013 164.27708Q24.050013 164.99583 24.300013 165.30833Q24.534388 165.62083 24.862513 165.62083Q25.065638 165.62083 25.221888 165.49583Q25.393763 165.35521 25.503138 165.08958Q25.565638 164.93333 25.768763 164.15208Q26.081263 163.02708 26.268763 162.58958Q26.456263 162.15208 26.815638 161.90208Q27.175013 161.65208 27.721888 161.65208Q28.253138 161.65208 28.721888 161.96458Q29.175013 162.26146 29.440638 162.83958Q29.690638 163.41771 29.690638 164.15208Q29.690638 165.37083 29.190638 166.01146Q28.675013 166.63646 27.690638 166.80833ZM29.690638 160.18333L20.815638 157.69896L20.815638 156.85521L29.690638 159.33958L29.690638 160.18333ZM26.440638 156.77708Q24.706263 156.77708 23.878138 155.82396Q23.190638 155.02708 23.190638 153.87083Q23.190638 152.58958 24.034388 151.77708Q24.862513 150.94896 26.346888 150.94896Q27.550013 150.94896 28.237513 151.30833Q28.925013 151.66771 29.315638 152.37083Q29.690638 153.05833 29.690638 153.87083Q29.690638 155.16771 28.862513 155.98021Q28.018763 156.77708 26.440638 156.77708ZM26.440638 155.69896Q27.628138 155.69896 28.221888 155.18333Q28.815638 154.65208 28.815638 153.87083Q28.815638 153.07396 28.221888 152.55833Q27.628138 152.04271 26.409388 152.04271Q25.253138 152.04271 24.659388 152.57396Q24.065638 153.08958 24.065638 153.87083Q24.065638 154.65208 24.659388 155.18333Q25.237513 155.69896 26.440638 155.69896ZM31.940638 149.38646L23.331263 149.38646L23.331263 148.43333L24.128138 148.43333Q23.659388 148.08958 23.425013 147.66771Q23.190638 147.23021 23.190638 146.62083Q23.190638 145.82396 23.596888 145.21458Q24.003138 144.60521 24.753138 144.30833Q25.503138 143.99583 26.393763 143.99583Q27.346888 143.99583 28.112513 144.33958Q28.878138 144.66771 29.284388 145.32396Q29.690638 145.98021 29.690638 146.69896Q29.690638 147.23021 29.471888 147.65208Q29.237513 148.07396 28.909388 148.33958L31.940638 148.33958L31.940638 149.38646ZM26.471888 148.43333Q27.675013 148.43333 28.253138 147.94896Q28.815638 147.46458 28.815638 146.77708Q28.815638 146.07396 28.221888 145.57396Q27.628138 145.07396 26.378138 145.07396Q25.190638 145.07396 24.612513 145.55833Q24.018763 146.04271 24.018763 146.73021Q24.018763 147.40208 24.643763 147.91771Q25.268763 148.43333 26.471888 148.43333ZM32.08126 141.69896L32.08126 142.44896Q29.268763 140.69896 26.440638 140.69896Q25.346888 140.69896 24.253138 140.94896Q23.378138 141.15208 22.565638 141.51146Q22.050013 141.74583 20.815638 142.44896L20.815638 141.69896Q22.284388 140.60521 23.768763 140.07396Q25.050013 139.62083 26.440638 139.62083Q28.018763 139.62083 29.503138 140.23021Q30.971888 140.83958 32.08126 141.69896Z" fill-rule="nonzero"/><path fill="#000000" d="M72.05 300.21564Q72.05 298.6844 72.3625 297.7625Q72.675 296.825 73.28438 296.325Q73.90938 295.825 74.84688 295.825Q75.53438 295.825 76.05 296.10626Q76.58125 296.3875 76.925 296.91876Q77.26875 297.4344 77.45625 298.1844Q77.64375 298.9344 77.64375 300.21564Q77.64375 301.73126 77.33125 302.65314Q77.03438 303.575 76.40938 304.09064Q75.8 304.59064 74.84688 304.59064Q73.6125 304.59064 72.89375 303.7Q72.05 302.6375 72.05 300.21564ZM73.12813 300.21564Q73.12813 302.325 73.62813 303.02814Q74.12813 303.73126 74.84688 303.73126Q75.58125 303.73126 76.06563 303.02814Q76.56563 302.325 76.56563 300.21564Q76.56563 298.09064 76.06563 297.40314Q75.58125 296.7 74.83125 296.7Q74.1125 296.7 73.675 297.3094Q73.12813 298.09064 73.12813 300.21564Z" fill-rule="nonzero"/><path fill="#000000" d="M58.05 219.35556L59.159374 219.26181Q59.284374 220.07431 59.721874 220.48056Q60.175 220.88681 60.815624 220.88681Q61.565624 220.88681 62.096874 220.30869Q62.628124 219.73056 62.628124 218.79306Q62.628124 217.88681 62.1125 217.37119Q61.6125 216.83994 60.784374 216.83994Q60.284374 216.83994 59.8625 217.07431Q59.45625 217.30869 59.221874 217.66806L58.2375 217.54306L59.065624 213.13681L63.346874 213.13681L63.346874 214.13681L59.909374 214.13681L59.45625 216.44931Q60.221874 215.90244 61.065624 215.90244Q62.190624 215.90244 62.95625 216.68369Q63.7375 217.46494 63.7375 218.69931Q63.7375 219.85556 63.065624 220.71494Q62.2375 221.74619 60.815624 221.74619Q59.64375 221.74619 58.89375 221.08994Q58.159374 220.43369 58.05 219.35556ZM65.05 217.37119Q65.05 215.83994 65.3625 214.91806Q65.675 213.98056 66.28438 213.48056Q66.90938 212.98056 67.84688 212.98056Q68.53438 212.98056 69.05 213.26181Q69.58125 213.54306 69.925 214.07431Q70.26875 214.58994 70.45625 215.33994Q70.64375 216.08994 70.64375 217.37119Q70.64375 218.88681 70.33125 219.80869Q70.03438 220.73056 69.40938 221.24619Q68.8 221.74619 67.84688 221.74619Q66.6125 221.74619 65.89375 220.85556Q65.05 219.79306 65.05 217.37119ZM66.12813 217.37119Q66.12813 219.48056 66.62813 220.18369Q67.12813 220.88681 67.84688 220.88681Q68.58125 220.88681 69.06563 220.18369Q69.56563 219.48056 69.56563 217.37119Q69.56563 215.24619 69.06563 214.55869Q68.58125 213.85556 67.83125 213.85556Q67.1125 213.85556 66.675 214.46494Q66.12813 215.24619 66.12813 217.37119ZM72.05 217.37119Q72.05 215.83994 72.3625 214.91806Q72.675 213.98056 73.28438 213.48056Q73.90938 212.98056 74.84688 212.98056Q75.53438 212.98056 76.05 213.26181Q76.58125 213.54306 76.925 214.07431Q77.26875 214.58994 77.45625 215.33994Q77.64375 216.08994 77.64375 217.37119Q77.64375 218.88681 77.33125 219.80869Q77.03438 220.73056 76.40938 221.24619Q75.8 221.74619 74.84688 221.74619Q73.6125 221.74619 72.89375 220.85556Q72.05 219.79306 72.05 217.37119ZM73.12813 217.37119Q73.12813 219.48056 73.62813 220.18369Q74.12813 220.88681 74.84688 220.88681Q75.58125 220.88681 76.06563 220.18369Q76.56563 219.48056 76.56563 217.37119Q76.56563 215.24619 76.06563 214.55869Q75.58125 213.85556 74.83125 213.85556Q74.1125 213.85556 73.675 214.46494Q73.12813 215.24619 73.12813 217.37119Z" fill-rule="nonzero"/><path fill="#000000" d="M55.01875 138.76111L53.971874 138.76111L53.971874 132.04236Q53.58125 132.40173 52.95625 132.77673Q52.346874 133.13611 51.8625 133.30798L51.8625 132.29236Q52.7375 131.87048 53.39375 131.29236Q54.065624 130.69861 54.346874 130.13611L55.01875 130.13611L55.01875 138.76111ZM58.05 134.52673Q58.05 132.99548 58.3625 132.07361Q58.675 131.13611 59.284374 130.63611Q59.909374 130.13611 60.846874 130.13611Q61.534374 130.13611 62.05 130.41736Q62.58125 130.69861 62.925 131.22986Q63.26875 131.74548 63.45625 132.49548Q63.64375 133.24548 63.64375 134.52673Q63.64375 136.04236 63.33125 136.96423Q63.034374 137.88611 62.409374 138.40173Q61.8 138.90173 60.846874 138.90173Q59.6125 138.90173 58.89375 138.01111Q58.05 136.94861 58.05 134.52673ZM59.128124 134.52673Q59.128124 136.63611 59.628124 137.33923Q60.128124 138.04236 60.846874 138.04236Q61.58125 138.04236 62.065624 137.33923Q62.565624 136.63611 62.565624 134.52673Q62.565624 132.40173 62.065624 131.71423Q61.58125 131.01111 60.83125 131.01111Q60.1125 131.01111 59.675 131.62048Q59.128124 132.40173 59.128124 134.52673ZM65.05 134.52673Q65.05 132.99548 65.3625 132.07361Q65.675 131.13611 66.28438 130.63611Q66.90938 130.13611 67.84688 130.13611Q68.53438 130.13611 69.05 130.41736Q69.58125 130.69861 69.925 131.22986Q70.26875 131.74548 70.45625 132.49548Q70.64375 133.24548 70.64375 134.52673Q70.64375 136.04236 70.33125 136.96423Q70.03438 137.88611 69.40938 138.40173Q68.8 138.90173 67.84688 138.90173Q66.6125 138.90173 65.89375 138.01111Q65.05 136.94861 65.05 134.52673ZM66.12813 134.52673Q66.12813 136.63611 66.62813 137.33923Q67.12813 138.04236 67.84688 138.04236Q68.58125 138.04236 69.06563 137.33923Q69.56563 136.63611 69.56563 134.52673Q69.56563 132.40173 69.06563 131.71423Q68.58125 131.01111 67.83125 131.01111Q67.1125 131.01111 66.675 131.62048Q66.12813 132.40173 66.12813 134.52673ZM72.05 134.52673Q72.05 132.99548 72.3625 132.07361Q72.675 131.13611 73.28438 130.63611Q73.90938 130.13611 74.84688 130.13611Q75.53438 130.13611 76.05 130.41736Q76.58125 130.69861 76.925 131.22986Q77.26875 131.74548 77.45625 132.49548Q77.64375 133.24548 77.64375 134.52673Q77.64375 136.04236 77.33125 136.96423Q77.03438 137.88611 76.40938 138.40173Q75.8 138.90173 74.84688 138.90173Q73.6125 138.90173 72.89375 138.01111Q72.05 136.94861 72.05 134.52673ZM73.12813 134.52673Q73.12813 136.63611 73.62813 137.33923Q74.12813 138.04236 74.84688 138.04236Q75.58125 138.04236 76.06563 137.33923Q76.56563 136.63611 76.56563 134.52673Q76.56563 132.40173 76.06563 131.71423Q75.58125 131.01111 74.83125 131.01111Q74.1125 131.01111 73.675 131.62048Q73.12813 132.40173 73.12813 134.52673Z" fill-rule="nonzero"/><path fill="#000000" d="M55.01875 55.916668L53.971874 55.916668L53.971874 49.197918Q53.58125 49.557293 52.95625 49.932293Q52.346874 50.291668 51.8625 50.463543L51.8625 49.447918Q52.7375 49.026043 53.39375 48.447918Q54.065624 47.854168 54.346874 47.291668L55.01875 47.291668L55.01875 55.916668ZM58.05 53.666668L59.159374 53.572918Q59.284374 54.385418 59.721874 54.791668Q60.175 55.197918 60.815624 55.197918Q61.565624 55.197918 62.096874 54.619793Q62.628124 54.041668 62.628124 53.104168Q62.628124 52.197918 62.1125 51.682293Q61.6125 51.151043 60.784374 51.151043Q60.284374 51.151043 59.8625 51.385418Q59.45625 51.619793 59.221874 51.979168L58.2375 51.854168L59.065624 47.447918L63.346874 47.447918L63.346874 48.447918L59.909374 48.447918L59.45625 50.760418Q60.221874 50.213543 61.065624 50.213543Q62.190624 50.213543 62.95625 50.994793Q63.7375 51.776043 63.7375 53.010418Q63.7375 54.166668 63.065624 55.026043Q62.2375 56.057293 60.815624 56.057293Q59.64375 56.057293 58.89375 55.401043Q58.159374 54.744793 58.05 53.666668ZM65.05 51.682293Q65.05 50.151043 65.3625 49.229168Q65.675 48.291668 66.28438 47.791668Q66.90938 47.291668 67.84688 47.291668Q68.53438 47.291668 69.05 47.572918Q69.58125 47.854168 69.925 48.385418Q70.26875 48.901043 70.45625 49.651043Q70.64375 50.401043 70.64375 51.682293Q70.64375 53.197918 70.33125 54.119793Q70.03438 55.041668 69.40938 55.557293Q68.8 56.057293 67.84688 56.057293Q66.6125 56.057293 65.89375 55.166668Q65.05 54.104168 65.05 51.682293ZM66.12813 51.682293Q66.12813 53.791668 66.62813 54.494793Q67.12813 55.197918 67.84688 55.197918Q68.58125 55.197918 69.06563 54.494793Q69.56563 53.791668 69.56563 51.682293Q69.56563 49.557293 69.06563 48.869793Q68.58125 48.166668 67.83125 48.166668Q67.1125 48.166668 66.675 48.776043Q66.12813 49.557293 66.12813 51.682293ZM72.05 51.682293Q72.05 50.151043 72.3625 49.229168Q72.675 48.291668 73.28438 47.791668Q73.90938 47.291668 74.84688 47.291668Q75.53438 47.291668 76.05 47.572918Q76.58125 47.854168 76.925 48.385418Q77.26875 48.901043 77.45625 49.651043Q77.64375 50.401043 77.64375 51.682293Q77.64375 53.197918 77.33125 54.119793Q77.03438 55.041668 76.40938 55.557293Q75.8 56.057293 74.84688 56.057293Q73.6125 56.057293 72.89375 55.166668Q72.05 54.104168 72.05 51.682293ZM73.12813 51.682293Q73.12813 53.791668 73.62813 54.494793Q74.12813 55.197918 74.84688 55.197918Q75.58125 55.197918 76.06563 54.494793Q76.56563 53.791668 76.56563 51.682293Q76.56563 49.557293 76.06563 48.869793Q75.58125 48.166668 74.83125 48.166668Q74.1125 48.166668 73.675 48.776043Q73.12813 49.557293 73.12813 51.682293Z" fill-rule="nonzero"/><path fill="#000000" d="M155.01799 315.2L156.12737 315.10626Q156.25237 315.91876 156.68987 316.325Q157.14299 316.73126 157.78362 316.73126Q158.53362 316.73126 159.06487 316.15314Q159.59612 315.575 159.59612 314.6375Q159.59612 313.73126 159.08049 313.21564Q158.58049 312.6844 157.75237 312.6844Q157.25237 312.6844 156.83049 312.91876Q156.42424 313.15314 156.18987 313.5125L155.20549 313.3875L156.03362 308.98126L160.31487 308.98126L160.31487 309.98126L156.87737 309.98126L156.42424 312.29376Q157.18987 311.7469 158.03362 311.7469Q159.15862 311.7469 159.92424 312.52814Q160.70549 313.3094 160.70549 314.54376Q160.70549 315.7 160.03362 316.5594Q159.20549 317.59064 157.78362 317.59064Q156.61174 317.59064 155.86174 316.9344Q155.12737 316.27814 155.01799 315.2Z" fill-rule="nonzero"/><path fill="#000000" d="M238.81151 317.45L237.76463 317.45L237.76463 310.73126Q237.37401 311.09064 236.74901 311.46564Q236.13963 311.825 235.65526 311.9969L235.65526 310.98126Q236.53026 310.5594 237.18651 309.98126Q237.85838 309.3875 238.13963 308.825L238.81151 308.825L238.81151 317.45ZM241.84276 313.21564Q241.84276 311.6844 242.15526 310.7625Q242.46776 309.825 243.07713 309.325Q243.70213 308.825 244.63963 308.825Q245.32713 308.825 245.84276 309.10626Q246.37401 309.3875 246.71776 309.91876Q247.06151 310.4344 247.24901 311.1844Q247.43651 311.9344 247.43651 313.21564Q247.43651 314.73126 247.12401 315.65314Q246.82713 316.575 246.20213 317.09064Q245.59276 317.59064 244.63963 317.59064Q243.40526 317.59064 242.68651 316.7Q241.84276 315.6375 241.84276 313.21564ZM242.92088 313.21564Q242.92088 315.325 243.42088 316.02814Q243.92088 316.73126 244.63963 316.73126Q245.37401 316.73126 245.85838 316.02814Q246.35838 315.325 246.35838 313.21564Q246.35838 311.09064 245.85838 310.40314Q245.37401 309.7 244.62401 309.7Q243.90526 309.7 243.46776 310.3094Q242.92088 311.09064 242.92088 313.21564Z" fill-rule="nonzero"/><path fill="#000000" d="M322.13626 317.45L321.0894 317.45L321.0894 310.73126Q320.69876 311.09064 320.07376 311.46564Q319.4644 311.825 318.98 311.9969L318.98 310.98126Q319.855 310.5594 320.51126 309.98126Q321.18314 309.3875 321.4644 308.825L322.13626 308.825L322.13626 317.45ZM325.1675 315.2L326.2769 315.10626Q326.4019 315.91876 326.8394 316.325Q327.2925 316.73126 327.93314 316.73126Q328.68314 316.73126 329.2144 316.15314Q329.74564 315.575 329.74564 314.6375Q329.74564 313.73126 329.23 313.21564Q328.73 312.6844 327.9019 312.6844Q327.4019 312.6844 326.98 312.91876Q326.57376 313.15314 326.3394 313.5125L325.355 313.3875L326.18314 308.98126L330.4644 308.98126L330.4644 309.98126L327.0269 309.98126L326.57376 312.29376Q327.3394 311.7469 328.18314 311.7469Q329.30814 311.7469 330.07376 312.52814Q330.855 313.3094 330.855 314.54376Q330.855 315.7 330.18314 316.5594Q329.355 317.59064 327.93314 317.59064Q326.76126 317.59064 326.01126 316.9344Q325.2769 316.27814 325.1675 315.2Z" fill-rule="nonzero"/><path fill="#000000" d="M407.03915 316.4344L407.03915 317.45L401.35165 317.45Q401.35165 317.075 401.47665 316.71564Q401.6954 316.1375 402.16415 315.575Q402.64853 315.0125 403.55478 314.27814Q404.96103 313.1219 405.4454 312.45Q405.9454 311.77814 405.9454 311.1844Q405.9454 310.5594 405.49228 310.1375Q405.03915 309.7 404.3204 309.7Q403.55478 309.7 403.10165 310.15314Q402.64853 310.60626 402.6329 311.41876L401.55478 311.3094Q401.66415 310.09064 402.3829 309.46564Q403.11728 308.825 404.35165 308.825Q405.58603 308.825 406.30478 309.5125Q407.02353 310.2 407.02353 311.21564Q407.02353 311.73126 406.80478 312.23126Q406.60165 312.71564 406.10165 313.27814Q405.61728 313.825 404.49228 314.77814Q403.53915 315.575 403.2579 315.8719Q402.99228 316.15314 402.8204 316.4344L407.03915 316.4344ZM408.49228 313.21564Q408.49228 311.6844 408.80478 310.7625Q409.11728 309.825 409.72665 309.325Q410.35165 308.825 411.28915 308.825Q411.97665 308.825 412.49228 309.10626Q413.02353 309.3875 413.36728 309.91876Q413.71103 310.4344 413.89853 311.1844Q414.08603 311.9344 414.08603 313.21564Q414.08603 314.73126 413.77353 315.65314Q413.47665 316.575 412.85165 317.09064Q412.24228 317.59064 411.28915 317.59064Q410.05478 317.59064 409.33603 316.7Q408.49228 315.6375 408.49228 313.21564ZM409.5704 313.21564Q409.5704 315.325 410.0704 316.02814Q410.5704 316.73126 411.28915 316.73126Q412.02353 316.73126 412.5079 316.02814Q413.0079 315.325 413.0079 313.21564Q413.0079 311.09064 412.5079 310.40314Q412.02353 309.7 411.27353 309.7Q410.55478 309.7 410.11728 310.3094Q409.5704 311.09064 409.5704 313.21564Z" fill-rule="nonzero"/><path fill="#000000" d="M490.36392 316.4344L490.36392 317.45L484.67642 317.45Q484.67642 317.075 484.80142 316.71564Q485.02017 316.1375 485.48892 315.575Q485.9733 315.0125 486.87955 314.27814Q488.2858 313.1219 488.77017 312.45Q489.27017 311.77814 489.27017 311.1844Q489.27017 310.5594 488.81705 310.1375Q488.36392 309.7 487.64517 309.7Q486.87955 309.7 486.42642 310.15314Q485.9733 310.60626 485.95767 311.41876L484.87955 311.3094Q484.98892 310.09064 485.70767 309.46564Q486.44205 308.825 487.67642 308.825Q488.9108 308.825 489.62955 309.5125Q490.3483 310.2 490.3483 311.21564Q490.3483 311.73126 490.12955 312.23126Q489.92642 312.71564 489.42642 313.27814Q488.94205 313.825 487.81705 314.77814Q486.86392 315.575 486.58267 315.8719Q486.31705 316.15314 486.14517 316.4344L490.36392 316.4344ZM491.81705 315.2L492.92642 315.10626Q493.05142 315.91876 493.48892 316.325Q493.94205 316.73126 494.58267 316.73126Q495.33267 316.73126 495.86392 316.15314Q496.39517 315.575 496.39517 314.6375Q496.39517 313.73126 495.87955 313.21564Q495.37955 312.6844 494.55142 312.6844Q494.05142 312.6844 493.62955 312.91876Q493.2233 313.15314 492.98892 313.5125L492.00455 313.3875L492.83267 308.98126L497.11392 308.98126L497.11392 309.98126L493.67642 309.98126L493.2233 312.29376Q493.98892 311.7469 494.83267 311.7469Q495.95767 311.7469 496.7233 312.52814Q497.50455 313.3094 497.50455 314.54376Q497.50455 315.7 496.83267 316.5594Q496.00455 317.59064 494.58267 317.59064Q493.4108 317.59064 492.6608 316.9344Q491.92642 316.27814 491.81705 315.2Z" fill-rule="nonzero"/><path fill="#000000" d="M568.14185 315.1844L569.20435 315.04376Q569.3762 315.9344 569.8137 316.34064Q570.2512 316.73126 570.8762 316.73126Q571.6262 316.73126 572.14185 316.21564Q572.6575 315.7 572.6575 314.9344Q572.6575 314.21564 572.1731 313.7469Q571.70435 313.2625 570.97 313.2625Q570.6731 313.2625 570.22 313.3875L570.345 312.45Q570.45435 312.46564 570.51685 312.46564Q571.1887 312.46564 571.72 312.1219Q572.26685 311.7625 572.26685 311.02814Q572.26685 310.45 571.8762 310.075Q571.4856 309.6844 570.8606 309.6844Q570.2512 309.6844 569.82935 310.075Q569.4231 310.46564 569.3137 311.23126L568.2512 311.04376Q568.4387 309.9969 569.1262 309.41876Q569.8137 308.825 570.82935 308.825Q571.5325 308.825 572.1262 309.1375Q572.72 309.4344 573.0325 309.95Q573.345 310.46564 573.345 311.0594Q573.345 311.60626 573.0481 312.075Q572.7512 312.52814 572.1731 312.79376Q572.9231 312.96564 573.345 313.52814Q573.76685 314.075 573.76685 314.91876Q573.76685 316.04376 572.9387 316.825Q572.1262 317.60626 570.8762 317.60626Q569.7512 317.60626 569.0012 316.9344Q568.2512 316.2469 568.14185 315.1844ZM575.14185 313.21564Q575.14185 311.6844 575.45435 310.7625Q575.76685 309.825 576.3762 309.325Q577.0012 308.825 577.9387 308.825Q578.6262 308.825 579.14185 309.10626Q579.6731 309.3875 580.01685 309.91876Q580.3606 310.4344 580.5481 311.1844Q580.7356 311.9344 580.7356 313.21564Q580.7356 314.73126 580.4231 315.65314Q580.1262 316.575 579.5012 317.09064Q578.89185 317.59064 577.9387 317.59064Q576.70435 317.59064 575.9856 316.7Q575.14185 315.6375 575.14185 313.21564ZM576.22 313.21564Q576.22 315.325 576.72 316.02814Q577.22 316.73126 577.9387 316.73126Q578.6731 316.73126 579.1575 316.02814Q579.6575 315.325 579.6575 313.21564Q579.6575 311.09064 579.1575 310.40314Q578.6731 309.7 577.9231 309.7Q577.20435 309.7 576.76685 310.3094Q576.22 311.09064 576.22 313.21564Z" fill-rule="nonzero"/><path fill="#4285f4" d="M132.5 25.55C132.5 28.863708 129.8137 31.55 126.5 31.55C123.186295 31.55 120.5 28.863708 120.5 25.55C120.5 22.236292 123.186295 19.55 126.5 19.55C129.8137 19.55 132.5 22.236292 132.5 25.55Z" fill-rule="nonzero"/><path fill="#1a1a1a" d="M140.78125 28.33125Q143.78125 26.409374 145.46875 23.7375L141.0625 23.7375L141.0625 22.70625L146.03125 22.70625L146.03125 20.128124L147.01562 20.128124Q147.4375 20.221874 147.10938 20.503124L147.10938 22.70625L151.04688 22.70625L151.04688 23.7375L147.10938 23.7375L147.10938 29.221874Q147.10938 30.346874 146.03125 30.346874L144.71875 30.346874L144.53125 29.315624L145.46875 29.315624Q146.03125 29.221874 146.03125 28.70625L146.03125 24.76875Q144.25 27.39375 141.71875 29.175L140.78125 28.33125ZM152.0625 25.70625L152.0625 24.675L162.51562 24.675L162.51562 25.70625L152.0625 25.70625ZM171.5625 22.2375Q173.90625 25.190624 174.89062 28.471874L173.625 28.89375Q172.45312 25.190624 170.57812 22.9875L171.5625 22.2375ZM168.0 23.315624Q168.375 23.55 167.90625 23.7375Q167.0625 26.690624 165.1875 29.128124L164.10938 28.425Q166.17188 25.940624 166.875 22.8L168.0 23.315624ZM173.625 19.659374Q174.23438 20.175 175.125 21.1125L174.51562 21.675Q173.67188 20.7375 173.01562 20.175L173.625 19.659374ZM172.5 20.3625Q173.20312 21.01875 174.0 21.95625L173.29688 22.471874Q172.59375 21.534374 171.84375 20.878124L172.5 20.3625ZM176.0625 25.70625L176.0625 24.675L186.51562 24.675L186.51562 25.70625L176.0625 25.70625ZM191.48438 22.471874Q191.76562 22.190624 192.14062 22.190624Q192.51562 22.190624 192.79688 22.425Q194.95312 24.346874 198.28125 27.20625L197.25 28.14375Q194.8125 25.89375 192.65625 23.925Q192.23438 23.55 192.09375 23.55Q191.85938 23.55 191.53125 23.925Q190.17188 25.51875 188.90625 26.878124L188.01562 25.846874Q189.84375 24.065624 191.48438 22.471874ZM206.5625 23.83125Q206.23438 26.878124 204.875 28.2375Q203.51562 29.596874 201.3125 30.39375L200.70312 29.503124Q202.85938 28.8 204.07812 27.58125Q205.39062 26.26875 205.57812 23.128124L206.5625 23.45625Q206.98438 23.596874 206.5625 23.83125ZM202.57812 25.51875Q202.01562 24.253124 201.45312 23.409374L202.34375 22.940624Q203.04688 23.83125 203.5625 25.05L202.57812 25.51875ZM200.1875 26.221874Q199.625 24.909374 199.01562 24.01875L199.95312 23.55Q200.60938 24.440624 201.125 25.70625L200.1875 26.221874ZM214.0625 26.784374Q211.57812 25.51875 209.98438 25.096874L209.98438 29.971874L208.90625 29.971874L208.90625 20.596874L209.84375 20.596874Q210.40625 20.64375 209.98438 20.971874L209.98438 23.925Q212.28125 24.58125 214.625 25.70625L214.0625 26.784374ZM213.96875 22.659374Q213.17188 21.675 212.375 21.065624L212.98438 20.596874Q213.78125 21.20625 214.57812 22.190624L213.96875 22.659374ZM215.09375 21.76875Q214.48438 20.971874 213.54688 20.221874L214.15625 19.753124Q214.95312 20.315624 215.70312 21.3L215.09375 21.76875Z" fill-rule="nonzero"/><path fill="#ea4335" d="M243.5 25.55C243.5 28.863708 240.8137 31.55 237.5 31.55C234.1863 31.55 231.5 28.863708 231.5 25.55C231.5 22.236292 234.1863 19.55 237.5 19.55C240.8137 19.55 243.5 22.236292 243.5 25.55Z" fill-rule="nonzero"/><path fill="#1a1a1a" d="M256.54688 27.55L257.64062 27.675Q257.39062 28.628124 256.6875 29.159374Q255.98438 29.690624 254.90625 29.690624Q253.54688 29.690624 252.73438 28.846874Q251.9375 28.003124 251.9375 26.4875Q251.9375 24.925 252.75 24.065624Q253.5625 23.190624 254.84375 23.190624Q256.09375 23.190624 256.875 24.034374Q257.67188 24.878124 257.67188 26.425Q257.67188 26.51875 257.67188 26.70625L253.03125 26.70625Q253.09375 27.7375 253.60938 28.284374Q254.125 28.815624 254.90625 28.815624Q255.48438 28.815624 255.89062 28.51875Q256.3125 28.20625 256.54688 27.55ZM253.09375 25.846874L256.5625 25.846874Q256.5 25.05 256.17188 24.659374Q255.65625 24.05 254.85938 24.05Q254.125 24.05 253.625 24.534374Q253.14062 25.01875 253.09375 25.846874ZM259.25 31.940624L259.125 30.95625Q259.46875 31.05 259.73438 31.05Q260.07812 31.05 260.28125 30.925Q260.5 30.815624 260.64062 30.6125Q260.73438 30.440624 260.96875 29.815624Q260.98438 29.7375 261.0625 29.565624L258.6875 23.33125L259.82812 23.33125L261.125 26.925Q261.375 27.6125 261.57812 28.378124Q261.76562 27.64375 262.01562 26.95625L263.34375 23.33125L264.39062 23.33125L262.03125 29.659374Q261.64062 30.675 261.4375 31.065624Q261.15625 31.596874 260.78125 31.83125Q260.42188 32.08125 259.92188 32.08125Q259.625 32.08125 259.25 31.940624ZM266.59375 28.6125L266.75 29.534374Q266.29688 29.628124 265.95312 29.628124Q265.375 29.628124 265.0625 29.45625Q264.75 29.26875 264.60938 28.971874Q264.48438 28.675 264.48438 27.721874L264.48438 24.14375L263.71875 24.14375L263.71875 23.33125L264.48438 23.33125L264.48438 21.784374L265.53125 21.159374L265.53125 23.33125L266.59375 23.33125L266.59375 24.14375L265.53125 24.14375L265.53125 27.784374Q265.53125 28.2375 265.57812 28.3625Q265.64062 28.4875 265.76562 28.565624Q265.89062 28.64375 266.125 28.64375Q266.3125 28.64375 266.59375 28.6125ZM266.73438 29.55L266.73438 28.690624L270.70312 24.14375Q270.01562 24.175 269.5 24.175L266.96875 24.175L266.96875 23.33125L272.0625 23.33125L272.0625 24.01875L268.6875 27.971874L268.03125 28.690624Q268.75 28.64375 269.35938 28.64375L272.25 28.64375L272.25 29.55L266.73438 29.55ZM272.29688 22.175L272.29688 20.95625L273.35938 20.95625L273.35938 22.175L272.29688 22.175ZM272.29688 29.55L272.29688 23.33125L273.35938 23.33125L273.35938 29.55L272.29688 29.55ZM275.29688 29.55L275.29688 23.33125L276.23438 23.33125L276.23438 24.20625Q276.92188 23.190624 278.21875 23.190624Q278.78125 23.190624 279.25 23.39375Q279.73438 23.596874 279.96875 23.925Q280.20312 24.253124 280.29688 24.690624Q280.34375 24.9875 280.34375 25.721874L280.34375 29.55L279.29688 29.55L279.29688 25.76875Q279.29688 25.1125 279.17188 24.8Q279.04688 24.4875 278.73438 24.3Q278.42188 24.096874 278.0 24.096874Q277.32812 24.096874 276.82812 24.534374Q276.34375 24.95625 276.34375 26.14375L276.34375 29.55L275.29688 29.55ZM282.09375 30.065624L283.125 30.221874Q283.1875 30.690624 283.48438 30.909374Q283.875 31.20625 284.54688 31.20625Q285.28125 31.20625 285.67188 30.909374Q286.07812 30.6125 286.21875 30.096874Q286.3125 29.76875 286.29688 28.7375Q285.60938 29.55 284.57812 29.55Q283.29688 29.55 282.59375 28.628124Q281.89062 27.690624 281.89062 26.409374Q281.89062 25.51875 282.20312 24.76875Q282.53125 24.003124 283.14062 23.596874Q283.75 23.190624 284.57812 23.190624Q285.6875 23.190624 286.40625 24.08125L286.40625 23.33125L287.375 23.33125L287.375 28.70625Q287.375 30.159374 287.07812 30.76875Q286.78125 31.378124 286.14062 31.721874Q285.5 32.08125 284.5625 32.08125Q283.45312 32.08125 282.76562 31.58125Q282.07812 31.08125 282.09375 30.065624ZM282.96875 26.33125Q282.96875 27.55 283.45312 28.1125Q283.9375 28.675 284.67188 28.675Q285.40625 28.675 285.89062 28.1125Q286.39062 27.55 286.39062 26.3625Q286.39062 25.221874 285.875 24.64375Q285.375 24.065624 284.65625 24.065624Q283.95312 24.065624 283.45312 24.64375Q282.96875 25.20625 282.96875 26.33125ZM293.54688 27.55L294.64062 27.675Q294.39062 28.628124 293.6875 29.159374Q292.98438 29.690624 291.90625 29.690624Q290.54688 29.690624 289.73438 28.846874Q288.9375 28.003124 288.9375 26.4875Q288.9375 24.925 289.75 24.065624Q290.5625 23.190624 291.84375 23.190624Q293.09375 23.190624 293.875 24.034374Q294.67188 24.878124 294.67188 26.425Q294.67188 26.51875 294.67188 26.70625L290.03125 26.70625Q290.09375 27.7375 290.60938 28.284374Q291.125 28.815624 291.90625 28.815624Q292.48438 28.815624 292.89062 28.51875Q293.3125 28.20625 293.54688 27.55ZM290.09375 25.846874L293.5625 25.846874Q293.5 25.05 293.17188 24.659374Q292.65625 24.05 291.85938 24.05Q291.125 24.05 290.625 24.534374Q290.14062 25.01875 290.09375 25.846874ZM296.28125 29.55L296.28125 23.33125L297.23438 23.33125L297.23438 24.26875Q297.59375 23.6125 297.89062 23.409374Q298.20312 23.190624 298.57812 23.190624Q299.10938 23.190624 299.65625 23.51875L299.29688 24.503124Q298.90625 24.26875 298.53125 24.26875Q298.17188 24.26875 297.89062 24.4875Q297.625 24.690624 297.51562 25.065624Q297.32812 25.628124 297.32812 26.284374L297.32812 29.55L296.28125 29.55ZM300.59375 29.55L300.59375 28.346874L301.79688 28.346874L301.79688 29.55L300.59375 29.55ZM303.04688 26.784374L304.10938 26.690624Q304.1875 27.346874 304.46875 27.753124Q304.75 28.159374 305.32812 28.425Q305.92188 28.675 306.65625 28.675Q307.29688 28.675 307.79688 28.4875Q308.29688 28.284374 308.53125 27.95625Q308.78125 27.6125 308.78125 27.221874Q308.78125 26.815624 308.54688 26.51875Q308.3125 26.20625 307.78125 26.003124Q307.42188 25.8625 306.23438 25.58125Q305.0625 25.3 304.59375 25.05Q303.96875 24.721874 303.67188 24.253124Q303.375 23.76875 303.375 23.175Q303.375 22.534374 303.73438 21.971874Q304.10938 21.39375 304.8125 21.1125Q305.53125 20.815624 306.39062 20.815624Q307.34375 20.815624 308.07812 21.128124Q308.8125 21.425 309.20312 22.034374Q309.59375 22.628124 309.625 23.378124L308.53125 23.45625Q308.4375 22.64375 307.92188 22.2375Q307.42188 21.815624 306.4375 21.815624Q305.40625 21.815624 304.9375 22.190624Q304.46875 22.565624 304.46875 23.096874Q304.46875 23.565624 304.79688 23.8625Q305.125 24.159374 306.5 24.471874Q307.89062 24.784374 308.40625 25.01875Q309.15625 25.378124 309.51562 25.909374Q309.875 26.425 309.875 27.128124Q309.875 27.815624 309.48438 28.425Q309.09375 29.01875 308.35938 29.3625Q307.625 29.690624 306.70312 29.690624Q305.53125 29.690624 304.73438 29.3625Q303.95312 29.01875 303.5 28.33125Q303.0625 27.64375 303.04688 26.784374ZM315.54688 27.55L316.64062 27.675Q316.39062 28.628124 315.6875 29.159374Q314.98438 29.690624 313.90625 29.690624Q312.54688 29.690624 311.73438 28.846874Q310.9375 28.003124 310.9375 26.4875Q310.9375 24.925 311.75 24.065624Q312.5625 23.190624 313.84375 23.190624Q315.09375 23.190624 315.875 24.034374Q316.67188 24.878124 316.67188 26.425Q316.67188 26.51875 316.67188 26.70625L312.03125 26.70625Q312.09375 27.7375 312.60938 28.284374Q313.125 28.815624 313.90625 28.815624Q314.48438 28.815624 314.89062 28.51875Q315.3125 28.20625 315.54688 27.55ZM312.09375 25.846874L315.5625 25.846874Q315.5 25.05 315.17188 24.659374Q314.65625 24.05 313.85938 24.05Q313.125 24.05 312.625 24.534374Q312.14062 25.01875 312.09375 25.846874ZM322.35938 28.784374Q321.76562 29.284374 321.21875 29.4875Q320.6875 29.690624 320.0625 29.690624Q319.03125 29.690624 318.48438 29.190624Q317.9375 28.690624 317.9375 27.909374Q317.9375 27.45625 318.14062 27.08125Q318.34375 26.690624 318.6875 26.471874Q319.03125 26.2375 319.45312 26.128124Q319.75 26.034374 320.39062 25.95625Q321.65625 25.815624 322.26562 25.596874Q322.26562 25.378124 322.26562 25.33125Q322.26562 24.675 321.96875 24.409374Q321.5625 24.065624 320.76562 24.065624Q320.03125 24.065624 319.67188 24.33125Q319.3125 24.58125 319.14062 25.2375L318.10938 25.096874Q318.25 24.440624 318.57812 24.034374Q318.90625 23.628124 319.51562 23.409374Q320.125 23.190624 320.92188 23.190624Q321.71875 23.190624 322.21875 23.378124Q322.71875 23.565624 322.95312 23.846874Q323.1875 24.128124 323.28125 24.565624Q323.32812 24.83125 323.32812 25.534374L323.32812 26.940624Q323.32812 28.409374 323.39062 28.8Q323.46875 29.190624 323.67188 29.55L322.5625 29.55Q322.40625 29.221874 322.35938 28.784374ZM322.26562 26.425Q321.6875 26.659374 320.54688 26.83125Q319.89062 26.925 319.625 27.05Q319.35938 27.159374 319.20312 27.378124Q319.0625 27.596874 319.0625 27.878124Q319.0625 28.3 319.375 28.58125Q319.70312 28.8625 320.3125 28.8625Q320.92188 28.8625 321.39062 28.596874Q321.875 28.33125 322.09375 27.8625Q322.26562 27.503124 322.26562 26.815624L322.26562 26.425ZM325.28125 29.55L325.28125 23.33125L326.23438 23.33125L326.23438 24.26875Q326.59375 23.6125 326.89062 23.409374Q327.20312 23.190624 327.57812 23.190624Q328.10938 23.190624 328.65625 23.51875L328.29688 24.503124Q327.90625 24.26875 327.53125 24.26875Q327.17188 24.26875 326.89062 24.4875Q326.625 24.690624 326.51562 25.065624Q326.32812 25.628124 326.32812 26.284374L326.32812 29.55L325.28125 29.55ZM333.35938 27.26875L334.39062 27.409374Q334.21875 28.471874 333.51562 29.08125Q332.8125 29.690624 331.79688 29.690624Q330.51562 29.690624 329.73438 28.8625Q328.96875 28.01875 328.96875 26.45625Q328.96875 25.45625 329.29688 24.70625Q329.64062 23.940624 330.3125 23.565624Q331.0 23.190624 331.8125 23.190624Q332.8125 23.190624 333.45312 23.70625Q334.10938 24.20625 334.29688 25.159374L333.26562 25.315624Q333.125 24.690624 332.75 24.378124Q332.375 24.05 331.84375 24.05Q331.04688 24.05 330.54688 24.628124Q330.04688 25.190624 330.04688 26.425Q330.04688 27.690624 330.53125 28.253124Q331.01562 28.815624 331.78125 28.815624Q332.40625 28.815624 332.8125 28.440624Q333.23438 28.065624 333.35938 27.26875ZM335.29688 29.55L335.29688 20.95625L336.34375 20.95625L336.34375 24.034374Q337.07812 23.190624 338.20312 23.190624Q338.90625 23.190624 339.40625 23.471874Q339.92188 23.7375 340.14062 24.221874Q340.35938 24.690624 340.35938 25.6125L340.35938 29.55L339.3125 29.55L339.3125 25.6125Q339.3125 24.815624 338.96875 24.45625Q338.625 24.096874 338.0 24.096874Q337.53125 24.096874 337.10938 24.346874Q336.70312 24.58125 336.51562 25.003124Q336.34375 25.409374 336.34375 26.14375L336.34375 29.55L335.29688 29.55Z" fill-rule="nonzero"/><path fill="#fbbc04" d="M369.5 25.55C369.5 28.863708 366.81372 31.55 363.5 31.55C360.18628 31.55 357.5 28.863708 357.5 25.55C357.5 22.236292 360.18628 19.55 363.5 19.55C366.81372 19.55 369.5 22.236292 369.5 25.55Z" fill-rule="nonzero"/><path fill="#1a1a1a" d="M377.875 27.690624L378.90625 27.534374Q379.0 28.159374 379.39062 28.4875Q379.79688 28.815624 380.53125 28.815624Q381.25 28.815624 381.59375 28.534374Q381.95312 28.2375 381.95312 27.83125Q381.95312 27.471874 381.64062 27.26875Q381.42188 27.128124 380.5625 26.909374Q379.40625 26.6125 378.95312 26.409374Q378.51562 26.190624 378.28125 25.815624Q378.04688 25.440624 378.04688 24.971874Q378.04688 24.565624 378.23438 24.20625Q378.42188 23.846874 378.75 23.6125Q379.0 23.440624 379.42188 23.315624Q379.84375 23.190624 380.34375 23.190624Q381.0625 23.190624 381.60938 23.409374Q382.17188 23.6125 382.4375 23.971874Q382.70312 24.33125 382.79688 24.925L381.76562 25.065624Q381.70312 24.596874 381.35938 24.33125Q381.03125 24.05 380.40625 24.05Q379.6875 24.05 379.375 24.3Q379.0625 24.534374 379.0625 24.8625Q379.0625 25.065624 379.1875 25.221874Q379.32812 25.39375 379.59375 25.503124Q379.75 25.565624 380.53125 25.76875Q381.65625 26.08125 382.09375 26.26875Q382.53125 26.45625 382.78125 26.815624Q383.03125 27.175 383.03125 27.721874Q383.03125 28.253124 382.71875 28.721874Q382.42188 29.175 381.84375 29.440624Q381.26562 29.690624 380.53125 29.690624Q379.3125 29.690624 378.67188 29.190624Q378.04688 28.675 377.875 27.690624ZM385.26562 29.55L385.26562 20.95625L386.32812 20.95625L386.32812 29.55L385.26562 29.55ZM388.29688 22.175L388.29688 20.95625L389.35938 20.95625L389.35938 22.175L388.29688 22.175ZM388.29688 29.55L388.29688 23.33125L389.35938 23.33125L389.35938 29.55L388.29688 29.55ZM395.35938 27.26875L396.39062 27.409374Q396.21875 28.471874 395.51562 29.08125Q394.8125 29.690624 393.79688 29.690624Q392.51562 29.690624 391.73438 28.8625Q390.96875 28.01875 390.96875 26.45625Q390.96875 25.45625 391.29688 24.70625Q391.64062 23.940624 392.3125 23.565624Q393.0 23.190624 393.8125 23.190624Q394.8125 23.190624 395.45312 23.70625Q396.10938 24.20625 396.29688 25.159374L395.26562 25.315624Q395.125 24.690624 394.75 24.378124Q394.375 24.05 393.84375 24.05Q393.04688 24.05 392.54688 24.628124Q392.04688 25.190624 392.04688 26.425Q392.04688 27.690624 392.53125 28.253124Q393.01562 28.815624 393.78125 28.815624Q394.40625 28.815624 394.8125 28.440624Q395.23438 28.065624 395.35938 27.26875ZM401.54688 27.55L402.64062 27.675Q402.39062 28.628124 401.6875 29.159374Q400.98438 29.690624 399.90625 29.690624Q398.54688 29.690624 397.73438 28.846874Q396.9375 28.003124 396.9375 26.4875Q396.9375 24.925 397.75 24.065624Q398.5625 23.190624 399.84375 23.190624Q401.09375 23.190624 401.875 24.034374Q402.67188 24.878124 402.67188 26.425Q402.67188 26.51875 402.67188 26.70625L398.03125 26.70625Q398.09375 27.7375 398.60938 28.284374Q399.125 28.815624 399.90625 28.815624Q400.48438 28.815624 400.89062 28.51875Q401.3125 28.20625 401.54688 27.55ZM398.09375 25.846874L401.5625 25.846874Q401.5 25.05 401.17188 24.659374Q400.65625 24.05 399.85938 24.05Q399.125 24.05 398.625 24.534374Q398.14062 25.01875 398.09375 25.846874ZM404.59375 29.55L404.59375 28.346874L405.79688 28.346874L405.79688 29.55L404.59375 29.55ZM407.375 29.55L407.375 20.95625L410.60938 20.95625Q411.59375 20.95625 412.1875 21.221874Q412.78125 21.4875 413.10938 22.034374Q413.45312 22.565624 413.45312 23.159374Q413.45312 23.70625 413.15625 24.190624Q412.85938 24.675 412.25 24.971874Q413.03125 25.20625 413.4375 25.76875Q413.85938 26.315624 413.85938 27.065624Q413.85938 27.659374 413.60938 28.190624Q413.35938 28.70625 412.98438 28.9875Q412.60938 29.26875 412.03125 29.409374Q411.46875 29.55 410.65625 29.55L407.375 29.55ZM408.51562 24.565624L410.375 24.565624Q411.125 24.565624 411.45312 24.471874Q411.89062 24.346874 412.10938 24.05Q412.32812 23.7375 412.32812 23.284374Q412.32812 22.8625 412.125 22.534374Q411.92188 22.20625 411.53125 22.096874Q411.15625 21.971874 410.23438 21.971874L408.51562 21.971874L408.51562 24.565624ZM408.51562 28.534374L410.65625 28.534374Q411.20312 28.534374 411.42188 28.4875Q411.82812 28.425 412.07812 28.26875Q412.34375 28.096874 412.51562 27.784374Q412.6875 27.471874 412.6875 27.065624Q412.6875 26.58125 412.4375 26.221874Q412.20312 25.8625 411.76562 25.721874Q411.32812 25.58125 410.5 25.58125L408.51562 25.58125L408.51562 28.534374ZM415.29688 22.175L415.29688 20.95625L416.35938 20.95625L416.35938 22.175L415.29688 22.175ZM415.29688 29.55L415.29688 23.33125L416.35938 23.33125L416.35938 29.55L415.29688 29.55ZM418.29688 29.55L418.29688 23.33125L419.23438 23.33125L419.23438 24.20625Q419.92188 23.190624 421.21875 23.190624Q421.78125 23.190624 422.25 23.39375Q422.73438 23.596874 422.96875 23.925Q423.20312 24.253124 423.29688 24.690624Q423.34375 24.9875 423.34375 25.721874L423.34375 29.55L422.29688 29.55L422.29688 25.76875Q422.29688 25.1125 422.17188 24.8Q422.04688 24.4875 421.73438 24.3Q421.42188 24.096874 421.0 24.096874Q420.32812 24.096874 419.82812 24.534374Q419.34375 24.95625 419.34375 26.14375L419.34375 29.55L418.29688 29.55ZM429.35938 28.784374Q428.76562 29.284374 428.21875 29.4875Q427.6875 29.690624 427.0625 29.690624Q426.03125 29.690624 425.48438 29.190624Q424.9375 28.690624 424.9375 27.909374Q424.9375 27.45625 425.14062 27.08125Q425.34375 26.690624 425.6875 26.471874Q426.03125 26.2375 426.45312 26.128124Q426.75 26.034374 427.39062 25.95625Q428.65625 25.815624 429.26562 25.596874Q429.26562 25.378124 429.26562 25.33125Q429.26562 24.675 428.96875 24.409374Q428.5625 24.065624 427.76562 24.065624Q427.03125 24.065624 426.67188 24.33125Q426.3125 24.58125 426.14062 25.2375L425.10938 25.096874Q425.25 24.440624 425.57812 24.034374Q425.90625 23.628124 426.51562 23.409374Q427.125 23.190624 427.92188 23.190624Q428.71875 23.190624 429.21875 23.378124Q429.71875 23.565624 429.95312 23.846874Q430.1875 24.128124 430.28125 24.565624Q430.32812 24.83125 430.32812 25.534374L430.32812 26.940624Q430.32812 28.409374 430.39062 28.8Q430.46875 29.190624 430.67188 29.55L429.5625 29.55Q429.40625 29.221874 429.35938 28.784374ZM429.26562 26.425Q428.6875 26.659374 427.54688 26.83125Q426.89062 26.925 426.625 27.05Q426.35938 27.159374 426.20312 27.378124Q426.0625 27.596874 426.0625 27.878124Q426.0625 28.3 426.375 28.58125Q426.70312 28.8625 427.3125 28.8625Q427.92188 28.8625 428.39062 28.596874Q428.875 28.33125 429.09375 27.8625Q429.26562 27.503124 429.26562 26.815624L429.26562 26.425ZM432.28125 29.55L432.28125 23.33125L433.23438 23.33125L433.23438 24.26875Q433.59375 23.6125 433.89062 23.409374Q434.20312 23.190624 434.57812 23.190624Q435.10938 23.190624 435.65625 23.51875L435.29688 24.503124Q434.90625 24.26875 434.53125 24.26875Q434.17188 24.26875 433.89062 24.4875Q433.625 24.690624 433.51562 25.065624Q433.32812 25.628124 433.32812 26.284374L433.32812 29.55L432.28125 29.55ZM436.25 31.940624L436.125 30.95625Q436.46875 31.05 436.73438 31.05Q437.07812 31.05 437.28125 30.925Q437.5 30.815624 437.64062 30.6125Q437.73438 30.440624 437.96875 29.815624Q437.98438 29.7375 438.0625 29.565624L435.6875 23.33125L436.82812 23.33125L438.125 26.925Q438.375 27.6125 438.57812 28.378124Q438.76562 27.64375 439.01562 26.95625L440.34375 23.33125L441.39062 23.33125L439.03125 29.659374Q438.64062 30.675 438.4375 31.065624Q438.15625 31.596874 437.78125 31.83125Q437.42188 32.08125 436.92188 32.08125Q436.625 32.08125 436.25 31.940624ZM441.04688 26.784374L442.10938 26.690624Q442.1875 27.346874 442.46875 27.753124Q442.75 28.159374 443.32812 28.425Q443.92188 28.675 444.65625 28.675Q445.29688 28.675 445.79688 28.4875Q446.29688 28.284374 446.53125 27.95625Q446.78125 27.6125 446.78125 27.221874Q446.78125 26.815624 446.54688 26.51875Q446.3125 26.20625 445.78125 26.003124Q445.42188 25.8625 444.23438 25.58125Q443.0625 25.3 442.59375 25.05Q441.96875 24.721874 441.67188 24.253124Q441.375 23.76875 441.375 23.175Q441.375 22.534374 441.73438 21.971874Q442.10938 21.39375 442.8125 21.1125Q443.53125 20.815624 444.39062 20.815624Q445.34375 20.815624 446.07812 21.128124Q446.8125 21.425 447.20312 22.034374Q447.59375 22.628124 447.625 23.378124L446.53125 23.45625Q446.4375 22.64375 445.92188 22.2375Q445.42188 21.815624 444.4375 21.815624Q443.40625 21.815624 442.9375 22.190624Q442.46875 22.565624 442.46875 23.096874Q442.46875 23.565624 442.79688 23.8625Q443.125 24.159374 444.5 24.471874Q445.89062 24.784374 446.40625 25.01875Q447.15625 25.378124 447.51562 25.909374Q447.875 26.425 447.875 27.128124Q447.875 27.815624 447.48438 28.425Q447.09375 29.01875 446.35938 29.3625Q445.625 29.690624 444.70312 29.690624Q443.53125 29.690624 442.73438 29.3625Q441.95312 29.01875 441.5 28.33125Q441.0625 27.64375 441.04688 26.784374ZM453.54688 27.55L454.64062 27.675Q454.39062 28.628124 453.6875 29.159374Q452.98438 29.690624 451.90625 29.690624Q450.54688 29.690624 449.73438 28.846874Q448.9375 28.003124 448.9375 26.4875Q448.9375 24.925 449.75 24.065624Q450.5625 23.190624 451.84375 23.190624Q453.09375 23.190624 453.875 24.034374Q454.67188 24.878124 454.67188 26.425Q454.67188 26.51875 454.67188 26.70625L450.03125 26.70625Q450.09375 27.7375 450.60938 28.284374Q451.125 28.815624 451.90625 28.815624Q452.48438 28.815624 452.89062 28.51875Q453.3125 28.20625 453.54688 27.55ZM450.09375 25.846874L453.5625 25.846874Q453.5 25.05 453.17188 24.659374Q452.65625 24.05 451.85938 24.05Q451.125 24.05 450.625 24.534374Q450.14062 25.01875 450.09375 25.846874ZM460.35938 28.784374Q459.76562 29.284374 459.21875 29.4875Q458.6875 29.690624 458.0625 29.690624Q457.03125 29.690624 456.48438 29.190624Q455.9375 28.690624 455.9375 27.909374Q455.9375 27.45625 456.14062 27.08125Q456.34375 26.690624 456.6875 26.471874Q457.03125 26.2375 457.45312 26.128124Q457.75 26.034374 458.39062 25.95625Q459.65625 25.815624 460.26562 25.596874Q460.26562 25.378124 460.26562 25.33125Q460.26562 24.675 459.96875 24.409374Q459.5625 24.065624 458.76562 24.065624Q458.03125 24.065624 457.67188 24.33125Q457.3125 24.58125 457.14062 25.2375L456.10938 25.096874Q456.25 24.440624 456.57812 24.034374Q456.90625 23.628124 457.51562 23.409374Q458.125 23.190624 458.92188 23.190624Q459.71875 23.190624 460.21875 23.378124Q460.71875 23.565624 460.95312 23.846874Q461.1875 24.128124 461.28125 24.565624Q461.32812 24.83125 461.32812 25.534374L461.32812 26.940624Q461.32812 28.409374 461.39062 28.8Q461.46875 29.190624 461.67188 29.55L460.5625 29.55Q460.40625 29.221874 460.35938 28.784374ZM460.26562 26.425Q459.6875 26.659374 458.54688 26.83125Q457.89062 26.925 457.625 27.05Q457.35938 27.159374 457.20312 27.378124Q457.0625 27.596874 457.0625 27.878124Q457.0625 28.3 457.375 28.58125Q457.70312 28.8625 458.3125 28.8625Q458.92188 28.8625 459.39062 28.596874Q459.875 28.33125 460.09375 27.8625Q460.26562 27.503124 460.26562 26.815624L460.26562 26.425ZM463.28125 29.55L463.28125 23.33125L464.23438 23.33125L464.23438 24.26875Q464.59375 23.6125 464.89062 23.409374Q465.20312 23.190624 465.57812 23.190624Q466.10938 23.190624 466.65625 23.51875L466.29688 24.503124Q465.90625 24.26875 465.53125 24.26875Q465.17188 24.26875 464.89062 24.4875Q464.625 24.690624 464.51562 25.065624Q464.32812 25.628124 464.32812 26.284374L464.32812 29.55L463.28125 29.55ZM471.35938 27.26875L472.39062 27.409374Q472.21875 28.471874 471.51562 29.08125Q470.8125 29.690624 469.79688 29.690624Q468.51562 29.690624 467.73438 28.8625Q466.96875 28.01875 466.96875 26.45625Q466.96875 25.45625 467.29688 24.70625Q467.64062 23.940624 468.3125 23.565624Q469.0 23.190624 469.8125 23.190624Q470.8125 23.190624 471.45312 23.70625Q472.10938 24.20625 472.29688 25.159374L471.26562 25.315624Q471.125 24.690624 470.75 24.378124Q470.375 24.05 469.84375 24.05Q469.04688 24.05 468.54688 24.628124Q468.04688 25.190624 468.04688 26.425Q468.04688 27.690624 468.53125 28.253124Q469.01562 28.815624 469.78125 28.815624Q470.40625 28.815624 470.8125 28.440624Q471.23438 28.065624 471.35938 27.26875ZM473.29688 29.55L473.29688 20.95625L474.34375 20.95625L474.34375 24.034374Q475.07812 23.190624 476.20312 23.190624Q476.90625 23.190624 477.40625 23.471874Q477.92188 23.7375 478.14062 24.221874Q478.35938 24.690624 478.35938 25.6125L478.35938 29.55L477.3125 29.55L477.3125 25.6125Q477.3125 24.815624 476.96875 24.45625Q476.625 24.096874 476.0 24.096874Q475.53125 24.096874 475.10938 24.346874Q474.70312 24.58125 474.51562 25.003124Q474.34375 25.409374 474.34375 26.14375L474.34375 29.55L473.29688 29.55Z" fill-rule="nonzero"/></svg>